/* XPM */
static char *_776a7c5efbc4148894db7b7175b127e[] = {
/* columns rows colors chars-per-pixel */
"64 64 256 2 ",
"   c #193807",
".  c #1C320D",
"X  c #292902",
"o  c #362A0A",
"O  c #293805",
"+  c #38360A",
"@  c #3B2A13",
"#  c #373B13",
"$  c #263C15",
"%  c #442C0E",
"&  c #482E16",
"*  c #493617",
"=  c #5C3B1C",
"-  c #55371C",
";  c #423A0E",
":  c #623D1F",
">  c #553D22",
",  c #5C3C23",
"<  c #5B3A28",
"1  c #623D24",
"2  c #633E2A",
"3  c #683D28",
"4  c #014C0A",
"5  c #044A03",
"6  c #035402",
"7  c #055A03",
"8  c #0A5D04",
"9  c #04550C",
"0  c #0A540C",
"q  c #065A0C",
"w  c #0B5C0C",
"e  c #0A5706",
"r  c #125D0C",
"t  c #1A5708",
"y  c #074D16",
"u  c #045413",
"i  c #0B5614",
"p  c #065A13",
"a  c #0B5C13",
"s  c #0A551C",
"d  c #0B5B1B",
"f  c #06531A",
"g  c #125C14",
"h  c #125D1C",
"j  c #185717",
"k  c #18490D",
"l  c #2B450A",
"z  c #394616",
"x  c #295818",
"c  c #36571D",
"v  c #2D4F0E",
"b  c #0D6203",
"n  c #0D620C",
"m  c #0D6A07",
"M  c #136403",
"N  c #12640B",
"B  c #146B0C",
"V  c #1A6C0D",
"C  c #176907",
"Z  c #1C730C",
"A  c #16730D",
"S  c #0D6213",
"D  c #0E611B",
"F  c #136413",
"G  c #156B13",
"H  c #1A6C15",
"J  c #13631B",
"K  c #19651B",
"L  c #166A1B",
"P  c #1A6C1B",
"I  c #1B6412",
"U  c #1C7314",
"Y  c #1D721C",
"T  c #1E791B",
"R  c #1A7615",
"E  c #0F7311",
"W  c #22740E",
"Q  c #25750B",
"!  c #246A19",
"~  c #376916",
"^  c #227414",
"/  c #237A15",
"(  c #2B7D16",
")  c #22741C",
"_  c #247B1C",
"`  c #2A7C1C",
"'  c #2C751A",
"]  c #317D18",
"[  c #26680A",
"{  c #0C5822",
"}  c #135D22",
"|  c #185725",
" . c #154925",
".. c #375A24",
"X. c #26532A",
"o. c #146423",
"O. c #1A6524",
"+. c #166922",
"@. c #1B6C23",
"#. c #1C6B2B",
"$. c #17652B",
"%. c #1E7223",
"&. c #1E732A",
"*. c #1B6832",
"=. c #0F6321",
"-. c #236D23",
";. c #25682B",
":. c #237424",
">. c #257A23",
",. c #2A7C24",
"<. c #24742B",
"1. c #2A752C",
"2. c #257A2A",
"3. c #2B7C2C",
"4. c #2A7624",
"5. c #327B24",
"6. c #38792A",
"7. c #2B7C33",
"8. c #267532",
"9. c #367934",
"0. c #326C2B",
"q. c #49461B",
"w. c #59441D",
"e. c #48571B",
"r. c #494822",
"t. c #5C4324",
"y. c #5D432A",
"u. c #574925",
"i. c #485A28",
"p. c #595627",
"a. c #5D5132",
"s. c #634125",
"d. c #6A4226",
"f. c #64432B",
"g. c #6B442B",
"h. c #644A2C",
"j. c #6A4A2C",
"k. c #634B26",
"l. c #71492E",
"z. c #6C4532",
"x. c #6C4B33",
"c. c #664A33",
"v. c #734C34",
"b. c #724C38",
"n. c #695435",
"m. c #77533A",
"M. c #6D532C",
"N. c #4A6527",
"B. c #546A2A",
"V. c #47782A",
"C. c #576833",
"Z. c #467A37",
"A. c #5C743A",
"S. c #507024",
"D. c #696738",
"F. c #64783B",
"G. c #696535",
"H. c #40661D",
"J. c #7B5844",
"K. c #794F41",
"L. c #777747",
"P. c #707346",
"I. c #4A7740",
"U. c #827E4F",
"Y. c #2D8216",
"T. c #2C821C",
"R. c #26831B",
"E. c #32851E",
"W. c #338B1B",
"Q. c #368819",
"!. c #3B931B",
"~. c #24810E",
"^. c #2C8324",
"/. c #2D822B",
"(. c #2A8627",
"). c #328523",
"_. c #348B24",
"`. c #3A8D23",
"'. c #32842C",
"]. c #348A2C",
"[. c #3A8C2C",
"{. c #3A8529",
"}. c #35922B",
"|. c #3C922B",
" X c #3C9427",
".X c #2D8231",
"XX c #2E8830",
"oX c #338432",
"OX c #358B34",
"+X c #3A8C33",
"@X c #348439",
"#X c #3B8D3B",
"$X c #388738",
"%X c #3C9333",
"&X c #3D923B",
"*X c #3A9838",
"=X c #438826",
"-X c #42942C",
";X c #459C2C",
":X c #479A26",
">X c #448A38",
",X c #429435",
"<X c #449A34",
"1X c #4A9D35",
"2X c #43953B",
"3X c #449B3C",
"4X c #4B9C3B",
"5X c #4C9436",
"6X c #569237",
"7X c #659238",
"8X c #4DA33B",
"9X c #4BA437",
"0X c #51A43D",
"qX c #55AA38",
"wX c #55A833",
"eX c #64AE3D",
"rX c #44951D",
"tX c #3A8941",
"yX c #3B9148",
"uX c #478B45",
"iX c #439343",
"pX c #449A42",
"aX c #4B9C43",
"sX c #4C9D4B",
"dX c #489647",
"fX c #569B46",
"gX c #528F4C",
"hX c #668A48",
"jX c #73854E",
"kX c #689B4A",
"lX c #798955",
"zX c #769854",
"xX c #6F964D",
"cX c #4CA344",
"vX c #4CA249",
"bX c #52A544",
"nX c #55AB44",
"mX c #52A44B",
"MX c #55AB4B",
"NX c #5AAD4C",
"BX c #5AAA46",
"VX c #5DB349",
"CX c #56AB52",
"ZX c #59A955",
"AX c #5CB355",
"SX c #4FA153",
"DX c #66B74A",
"FX c #64A753",
"GX c #65B754",
"HX c #72AB52",
"JX c #64AE62",
"KX c #6CC258",
"LX c #6FC352",
"PX c #71C565",
"IX c #859963",
"UX c #859F5D",
/* pixels */
"d.d.g.f., h.c.c.f.v.l.3 2 f.f.f.3 3 g.f.c.h.d.d.z.3 1 x.h.f.z.m.s.d.f.1 d.d.1 j.g.f.x.f.1 g.f.1 z.g.z.1 m.j.1 d.1 d.s., f.j., v.",
"1 1 m.f.- f.c.f.f.1 g.v.b.g., f.1 g.j., , f.: l.v., f.j.f.x.1 2 b.x.v.1 d.d.j.h.1 f.s.1 g.v.1 2 g.v.f.f., j.v.m.g.= x.f.j.1 g.1 ",
"z.2 J.x.k.k., 2 1 g.s.j.= d.d.j.g.d.= d.z.b.1 g.m.f.f.1 1 , g.f.f.f.1 : d.d.f.t.1 1 m.d.1 m.v.g.g.1 1 f.x.s.f.1 1 3 z.z.2 1 1 j.",
"t.y.y.c.w.k.h.f.t.> - > f.j.= w.w.k.j.g., , t.t.k.u.h.t.h.t.= - - y.j.= w.w.u.a.j.g.= s.t.t.y.f.t.h.y.- - - t.h.f.s.t.t.n.f.x.- ",
"q.p.z q.p.D.; + p.D.; P.u.* u.q.C.L.G.w.t.r.p.+ q.q.D.q.+ ; L.w.p.D.; p.q.p.D.P.u.y.* a.r.q.q.G.p.+ + P.D.* P.q.u.u.e.B.L.c.y.> ",
"..A.i.N.O lXC.P.F.i.# z IXe.O F.xXl O r.q.# F.N.C.l B.jXC.jXC.z X L.P.O H.zXS.O z r.O C.C.N.i.l lXN.hXA.r.X i.lXz l 7X7Xl # r.q.",
"..xXFX0.  ..gXgXX.. . $ hXxXv 7XeXHXx   c v hXxXgXk k >XuXZ.  $ $ ..UX~ =X6XHXV.  c x Z.fXkXx   6.6XgXk   l   zXhX[ wXeXkXl O i.",
"j 5 {.! 0 x j 0 |  .X.k t >XFX{.DXQ t 9.Z.! 5 ! >X5 g P 0 h | X.X.k 5.BX=XBX-Xt ~ Z.;.g 6 ,Xj k ! r j | j j j x fX0X!.DXM I Z.V.",
"1.N |.T.H ZX#X0 } s i j i @X>XV |.Z +XvX#X1.I 5.+XV 2XSXJ i j i s j I BXr >X^ T.4XfX1.-.V -X) 4.NX5.i { i i s j 2X)._ '._ +XZX6.",
"I sX].%X^.>.#XJ h 7.ZXoXa @.3.r _ ].T (.G w +XaX,.aXG oX<.J @.SXsXS n '.I ) '.).` ` S Y mX_ aX4.,.oXh #.tXZX7.0 4.H L 3.&X) /.F ",
"'.sX7 :.SX4 0 7.J F 3.SXL n K g P /.T m b >.vX,.6 sXO.9 <.%.a L vX].8 N w F 3.>.H 7 L &XdX4 $X@X5 o.1.F a tXSXn r N S Y /.Y n n ",
"Y Y L o.8.4 i ZX&XG 6 .X/.OXtX<.@XY _ 3X(._ H P w 3.i 4 $XCX2.9 Y '.(.pX:.oX3.G 4X'.(.Y @.J @.;.y O.CX].S w OX_ 2X9.:.OXG (.pX.X",
">.3.<.J 0 -.>.%X8XR.>.G S 2.1.@.%.>.3X_./ (.>..XI w J 1.,.cX]./.P S %..XL %.Y ].3XZ ).U oX%.J i :.>.<X<X/.P G G 3.@.:.L T.0X_ '.",
"#X@.J dX$X! >.B T.R.^.n oXw oX3.G &XBX( 8X%X%.D 1.sXw oXG (.` OXG :.P G iXF T AX( 1X,X/.P F SX%.) ) U T.(.,.N 4.w dXY U <X-X).4X",
"7.a 9 oXaXn P F ].U m ` ]._ ZXB %X].E.DX1XT #.u J ZX) G n 2.(.m U [.W bX,./.*X(.-XDX,.<.a u &X%XF F G (.G G R.).).fXG 2X[.E.KXY.",
"o.h O.@..X2.dX<.<.%.2XMX0X] ).M ).` M bX` G d $.o.7.>.iX@X<.Y ].bXVXY.`.V :.(.m ,X,XK h } J >.>.'.iX%.&.:.cXNX|.Q.] V '.^ ^ bXC ",
"i o.#.$.o.&.7.D u u F ) DX:XeXDX[.>.Y #XJ h d *.$.#.J 2.#.d 9 n V 4XqX:XKX4X/.) 6.4.} s #.o.+.J <.<.=.u q F ).GXrXDXNX'.3.Y $XS ",
"J O.u d *.o.D p J dX3.M `.wXqXC M ) F o.o.u +.D f o.+.J u d oX#XH W wXeXE.N V G P @.u $.o.u d @.+.p u <.dX^ M -XeX:XC B P J @.p ",
"F @.P :.J #.2.Y &X,X/ <XBX)._.W VX` n @.p D %.L G L %.:.>.,.MX/ ).NX`.[.V 4X<XM P i d o.:.L :.J :.>.Y vX].` bX8XE.Y.( GX:.J J p ",
":.3./.sX<.J :._ E./ |.bXb H GXT.<XE.]..X8.&.Y ^.*X*Xw :._ (.Z _.bX'.7 aX4X_.;XE.OX<.7.%.3.'.sXL G _ >.` T.4X4X6 _ GXY.1X,.#X:.:.",
"L .XCX&XJ D 2.,.Z VX%X2XF w mX+X9XW.+X1.tX2.G CXpX>.w >.>.Z ;XnX2X:.e '.4X;X:XW.` OX.Xn 3XMX#Xq L /.>._ AX[.+X8 V BXQ.wXE.].(.OX",
"7 OXOXG p J OX,.^ NXH w :.4.-.H VX-X4.L .X7 U 3XP P 6 >.].V 8X_.8 K @XH ^ `.VXT.B ,.G n %X>.P q G OX:./.MXb N '.) ) Q DX`.U U ` ",
"W ` ,.F 6 >._.Z Z (.,.,./.H G G -X`.G G ).T.^ '.@.4 H +X) F '.>./ ^.:.G N ).2XP K 2._.Z ,.3.p q '.^.B :./.,.` ,.K F Z 8X,.G ) oX",
"nXT./.n ^.NX%X/ b B >.:.2XY 2.&X).).'.Y [.NX|.` %.L cXcX'.I 8 >.U 3X>.>.].+X3.tX&.8.cXnX` ,.q &XbX}.U 8 H T (.&X@.oX&X,.#X4.<.$X",
"W.}.U A  X X` B C ,X+XP -.0 w H ^ B 2.a 6 :.*X^.n '.}._.U n ^.8XY :.a 0 N ) F 1.o.9 n %X_.C R %X}.R A B <X].G L w q ) G :.%.{ y ",
"Z _.cX_.;X;X/ ,.,XmX/.J 1.1.P ,.aX&X&.d a P >.3X3X_.qX~.` ].MX+XI <.@XP ^ ,XaX7.D p P T _.qXT.8X}.R R.8XcXH L oX:.G +XmX@X#.f $.",
"T.C ^ 8XQ.!.|.+XOXa 4 7.#X^.NXbX(.S d d P >._ B 3X_.!.!. X(.%.9 L +X,.3XVX|.H a d d Y ^.M _.<XE.|.<X_.'.9 p 3.OX(.AX8X) a h h #.",
"2XmX` W  XLXcX'.J u $.#.Y ^.T.` ].SX@.a Y %XaX+X) ).LXeX}.:.} s @.Y ,.^.Y.Y.mXoXp @./.3XaX) ` 4XKX<X,.F d $.<.Y ).E.W 4XdXi h 4.",
"@.a 2X}.|.B N i o.{ *.} P ) <X-XKX|.6 ,.].H F 4.2X].^ M 0 } { $.o.@._ ( :XqXGXN N OX>.H G &X'.+XG S a o.{ *.} :.U -X;XKX^.n ,./.",
"<.q ,.^.U pX<.a { { u 0 F $XpX^ 4XM ).bX2X>.r ) $X^ +X$Xo.} y s u a G ZXW 4XH ) 2XCX>.Y 7 +X_ _ 2XL s { f f s a aX|.E.|.b '.CX(.",
"N +X,X,X_ $XsXo.o.<.#X_ 0 8.tXa /.+X(.+X:.I / 3X+X'.>.SX<.h O.tX.Xw J iXa :.oX+XoXoXG F 2X%X[.^ aXiXd o.7.#Xo.a @X%.H /.+XoXOX:.",
").ZXN '.iX6 g -.J @.cXmXa d J a L /.U G q @.cX).8 ZXJ a Y F K @XAX>.9 o.a J 3.3.P 7 F +XmX6 2X+X5 K @.K Y CXsX0 a J a @.oXH G w ",
",.3.a @.7.4 w sX'.w 7 #X2.3.3.Y XX_ R _.>..X/.H a tX} 5 ].<XH 6 ,.+X:.oX%.3..XY ].^ '.,.:.a <.1.4 J vX_ 7 F 2X) /.>.%.@X%./.,.^.",
"H :.<.d h a P pXmX>.L @.@.$X'.U _ A |.<X) >.%.7.g i } o.^.AX/.Y G Y ,.#X:.%.Y >.bX` ` G 7.@.a J o.@.mX3X2.S H U %X'.%.2.Y 3X_.( ",
"]._ P #XK 1.@X:.].OX.XS P w ^ ` m }.NXZ |.2X<.:.4.{.F $X2.'./.2XP F K N oXB R nX).^.3XOX2.L 2Xr 3.3./.].oX/.n H 8 4.Y G ,X8XZ 1X",
"'.n 0 tXSX7 I n '.Y n Y #X^ NXU _.}.).nXbX` @.9 H NXH I a >.>.B N OX>.aX'.U }.|.}.AX/.<.d p mX[.w F G /.H n ,.[._ BXH +X%X).GXE.",
"@.d a <.@X,.#X>./.) %X8XE.Y.[.7 (.^.V CX(.Y S a F $X>.OX,./.2.,.<X9XW 1Xb ` ^.Z |.bXP o.d d 7.oX,.+X%..X2.pX4X( E.T.b ].T ) GX^ ",
"{ #.8.#.@.:.oXP w n / `.LX X5XBX%X/ P #XP a p 8.o.@.@.$X&.n q Y ).DX9X`.nX3X/.B ).,.D f *.#.@.O.3.oXL p S T 0XDX!.9X0X].>.:.$XN ",
"{ $.s d o.o.J 9 w :.Y b E.BXGX+XN ) K 7.$.s o.d d O.O.o.d i L >.N V qXDX0XY G :.<.@.p o.o.d d O.o.p p S :.U 6 1XeXDX).F :.@.7.i ",
"d #.o.h o.8.@.L OXCX` ).NX,X5.M 4X) a d { s &.@.h o.#.*.#.%.CX+X4.bX:X!.M %XOXq J d 9 L @.S o.o.<.@.J pXcX/ ,XbX=XQ ^ aXI a h i ",
"@.:.U 3X%.+.7.<.OX/ W.0X) :.BX( 0X_.,..XL @.Y Y ].OXJ <.%.XXR./ 9X-XV 5X,X|.8X` OXP P Y ) >.tXP P ,.>.].Z }.bX[ Y.wX( BX^.'.,.K ",
":./.nX4XP +.@.:.U 8X;X8Xw 0 FXW.;XW.[.>.$X/.G cXcXOXq &.T R _.0X8X( 5 >XbX_. X_.,.'.@XG %XmXsXw P ) >.R nX9X<X6 V GX).,X).).,.+X",
"w oX3X:.d D #X'./ GXU G 4.-.,.E.qX:X).>.#Xn B mX7.J u 7.].Z 0X-XB P 3.) '.%XnX_.^ #X@.w 3X%X@.i %.+X:./.AXB H 4.K >X` VX|.^.4.oX",
"B 2./.w u L >.V U %X:.P >.P F b wX!.H r :.U B ].J h a ,.U C [.^.G P 3.F N ].8XV N %.%.G (.T a a P 3.P /.OXU P 7.@.a B nXT.M G 3.",
"8X_ .XF G BX3X` G L 3.3.2XY /.].)._.3.:.2XMXT.(.&.q <X8X].G F >.>.iX1.;.'.]._.'.Y oXMX&XT ].S 2.MX3X@.S T ,.'.$XP 3.+X(.].:.3.iX",
" X}.G G %X X( C w 2..XY /.n N _ T ,.7.S 6 ].8XR N ]. XW.A 8 P oX) /.J K Y ^.B '.L a V 8X^.B G 2X[./ n n /._ /.) N H ^.U 3.:.h i ",
"R _.3X_  X9X/ T.[.AXtXS P H b B %X3.8.d a G (.%XT.E.9X_.R.(.bXNXH F <.w 8 T.].3.J u S / |. XT.<X<X( / 3XAX/.b U G 7 U +X/.@.s { ",
"_ A }.8XW.W.T.^.&X) 9 &.iX^.3XMX<X>.o.s @.%./ / nX_. XY.^.].+X6 F #XoX+XBX8X).P d o.@.>.Z 9X X XY.Y._.&XS q /.2X/.mXMX&XY J s *.",
"%X|.V T.W.LXAXOX%.9 J :.:.(.*X(.A ).j j @.OX2X^ / T.DXGXpX3.g i @.<.,.2X[.Z T.U a J 3.2X[.Z E.-XLXqX/.+.p o.2.T ].3XR./ 3.r g 1.",
"6.].,XY.;X_.G L o.{ o.o.:.H (.%XKXNXr K /.,.3.>X].}.-X^ F J s O.@.@.>.U |.8XPX_ w 1.3.'.4.,X).1XY.C L } s $.+.Y Z _.|.PXaXe ) ,.",
";.5 ( !.T.` P a } y { s J oXmX^.NXM V 8X%X^ w F *X~./ _ q =.d d d p Y MXT.BX,.N _.BX%.J 7 %X^.` / N g h | | s J <X1X[.cX7 _ BX] ",
"#.1.2X_.U mXdXg } ;.;.h i oX$XI {.).`.1X).^ K #X}.R &XZX&.p } #.o.a J vXb ).4.+X,X%X:.J /.&X^._ ZX$Xd } | ;.} u >X' ^ '.].].2X5.",
"H AXP #X#Xw 1.O.o.<.FXaXr g <.0 P OXL %.w r fX,XB CXa <.:.F #.sXAXY 6 @.g K /.3.Y G 8 /.CXF sX3.g 8.o.o.tXJXtXi O.@.g <.OXH :.g ",
"(.OXq @.tX0 5 iX:.w N bX) K -.P %./.&.%.P '.[.^ 7 iXO.5 3.'.J 0 +X[.G <.h <.3.,.>.n ^.].oXe 4.@X4 o.yXL 6 :.sXP @.@.K 1.(.>.@.;.",
"E Y -.i ;.0 F aXbX^ e :.>.,X+X^ (.E (.cX,.) G :.g K i 0 _.DX3.r I 5.).,X>.>.T R cXXXT B ) K h } 0 P FX,XH w 5.' <X)._ ^.B +XpX>.",
"/./.1.1.j 1.6.>X=Xt uXj t fX6X5.,XA 8XT.^.#X2.7.-.;.h tX5.5Xt Z.0.k V.FX' aX` ).<XU &X/.oX-.1.i 7.6.>X~ ! >Xt x kX5.{.[.Z bXU ,X",
">Xg 0 sXdXj 0.v v B.IXz i.l A.N.kX6X[ 5X5X'.;.i 0.JXa ;.l c x zXC.q.i.i.P.V.HXQ ] 0X[.,.g 0 JX6.g x z v 7XxXv i.l jX~ HX=X[ 0X).",
"..c Z.j 6.Z...  O IX; X @ X u.# v xXl UXV.~ x I.x 0.9.0.O X F.F.X @ @ @ r.O xX~ =XkX~ j 9.9.x V.V.v X q.UXO # o @ u.X N.hXv HX~ ",
"O jX..l O jXjX+ * n.* > @ > * * + p.+ G.# . C.A.$ O N.IXr.o G.r.- & & , * o q.; p.i.O z lX# $ l zXA.+ u.n.; * & - & * ; q.z C.O ",
"q.L.+ o o X U.M.- & - z.f.c.f.f.> % % * @ @ D.e.o o X p.L.* > & , f.f.f.j.s.& & & @ @ a.P.o o X O lXq.> % y.c.2 z.g.2 > & % * o ",
"u.* & & & > h.* t.t.= = = g.j.d.g.s.t.j.- f.w.+ * & * u.u.* c.> y.> h.M.= j.f.f.z.< , y.- & % * - a.* h.s., < < b.f.2 g., c.f.< ",
"f.h.> c.c.< , % w.h.t.m.l.g.1 l.1 j.h.x.d.d.j.= f.f.f., % * f.f.c.c.j.d.v.: g.z.x.z.f.f.f.= x.1 f.- o h.j.d.b.x.2 z.z.2 v.v.z.2 ",
"1 d.g.m.x.f.b.< , m.j.s.1 f.2 J.x.x.f.f.v.= d.f.x.J., b.z., l.v.g.2 f., v.m.g.g., x.s.> j.f.J.b.z.m.t.t.v.d.1 f.2 d.J.f.M.= g.f.",
"l.d.d.s.= f.J.h.2 f.f.x.f.2 z.K.z.< x.f.: j.g.2 f.= f.b.K.1 l.3 v.z.1 d.v.v.1 s.j.= f.j.t.f.< < 3 J.t.f.d.d.v.2 1 x.b.h.= M.s.d."
};
