/* XPM */
static char *e7c9070fa3984828ee2df74716e3d6aeo9YWjf63v8gWqieD[] = {
/* columns rows colors chars-per-pixel */
"64 64 251 2 ",
"   c #000100",
".  c #0B0103",
"X  c #060807",
"o  c #140809",
"O  c #061705",
"+  c #17160D",
"@  c #08091A",
"#  c #141017",
"$  c #240C0C",
"%  c #2B110F",
"&  c #27130E",
"*  c #2A1516",
"=  c #36100F",
"-  c #163A13",
";  c #0F2F0B",
":  c #352C0A",
">  c #293A0A",
",  c #36340E",
"<  c #282417",
"1  c #383C12",
"2  c #2A3615",
"3  c #171727",
"4  c #1B1F31",
"5  c #271B23",
"6  c #391F26",
"7  c #342835",
"8  c #491D1A",
"9  c #431715",
"0  c #4D1115",
"q  c #64181D",
"w  c #79191F",
"e  c #4E211D",
"r  c #472D16",
"t  c #52231F",
"y  c #4B331A",
"u  c #483817",
"i  c #553B1D",
"p  c #46330D",
"a  c #7B1F24",
"s  c #6B1C20",
"d  c #552521",
"f  c #592923",
"g  c #5C3D24",
"h  c #583C24",
"j  c #482A34",
"k  c #4E3330",
"l  c #7C2125",
"z  c #633E25",
"x  c #633E2A",
"c  c #65382A",
"v  c #693E32",
"b  c #09580D",
"n  c #184717",
"m  c #0C5B14",
"M  c #0D5C1B",
"N  c #095518",
"B  c #125D1C",
"V  c #175A17",
"C  c #164D0E",
"Z  c #294816",
"A  c #394716",
"S  c #295919",
"D  c #39541A",
"F  c #2D4A0D",
"G  c #14670D",
"H  c #0E6214",
"J  c #0E631B",
"K  c #126313",
"L  c #166A14",
"P  c #196C15",
"I  c #14641B",
"U  c #1B651B",
"Y  c #16691C",
"T  c #1A6C1C",
"R  c #196515",
"E  c #1D7215",
"W  c #1E721B",
"Q  c #156B0E",
"!  c #25681A",
"~  c #227515",
"^  c #237915",
"/  c #22741C",
"(  c #247B1C",
")  c #2A7D1C",
"_  c #2A7819",
"`  c #33781C",
"'  c #316818",
"]  c #0D5B21",
"[  c #175B22",
"{  c #305324",
"}  c #146422",
"|  c #1B6B23",
" . c #1A6627",
".. c #1E7122",
"X. c #1F7229",
"o. c #186230",
"O. c #266A25",
"+. c #356A26",
"@. c #237424",
"#. c #267A24",
"$. c #2A7D23",
"%. c #23742B",
"&. c #2B7C2B",
"*. c #297627",
"=. c #317C2C",
"-. c #367528",
";. c #2B7A34",
":. c #367A34",
">. c #296831",
",. c #49461A",
"<. c #55451E",
"1. c #45571D",
"2. c #494A23",
"3. c #5C4324",
"4. c #574826",
"5. c #455826",
"6. c #59562A",
"7. c #5B4739",
"8. c #5E5A36",
"9. c #634225",
"0. c #64442A",
"q. c #6A442B",
"w. c #64482B",
"e. c #6B492D",
"r. c #694325",
"t. c #6C4533",
"y. c #6D4A32",
"u. c #644838",
"i. c #724B34",
"p. c #74493A",
"a. c #655A34",
"s. c #6C5133",
"d. c #4C6828",
"f. c #556B2E",
"g. c #576B35",
"h. c #457A36",
"j. c #5B7738",
"k. c #4D6531",
"l. c #676539",
"z. c #667036",
"x. c #43601F",
"c. c #262C47",
"v. c #2D2F49",
"b. c #4E3E42",
"n. c #765D4C",
"m. c #6B534B",
"M. c #587A43",
"N. c #647744",
"B. c #7C6252",
"V. c #727046",
"C. c #584748",
"Z. c #811D23",
"A. c #852227",
"S. c #982A2F",
"D. c #A1292F",
"F. c #AC2C33",
"G. c #CE323B",
"H. c #E4303D",
"J. c #84463F",
"K. c #DC3842",
"L. c #E43B44",
"P. c #EB3A44",
"I. c #F13C46",
"U. c #885B4C",
"Y. c #886756",
"T. c #966755",
"R. c #91735A",
"E. c #A7745D",
"W. c #9B7A65",
"Q. c #AC7965",
"!. c #FB414B",
"~. c #F14049",
"^. c #EF4D52",
"/. c #CC7165",
"(. c #E67268",
"). c #E5605D",
"_. c #2C821D",
"`. c #2A8119",
"'. c #32861B",
"]. c #2C8224",
"[. c #2E822B",
"{. c #2C8728",
"}. c #328525",
"|. c #348B24",
" X c #398D24",
".X c #32852C",
"XX c #348A2B",
"oX c #3A8C2C",
"OX c #3A832A",
"+X c #3C932C",
"@X c #3B9426",
"#X c #2F8234",
"$X c #328433",
"%X c #368A33",
"&X c #3B8C33",
"*X c #3B8C3C",
"=X c #368539",
"-X c #3D9334",
";X c #3E923B",
":X c #3F9D34",
">X c #43972B",
",X c #488936",
"<X c #578837",
"1X c #429534",
"2X c #449934",
"3X c #42953C",
"4X c #459A3B",
"5X c #4A9B38",
"6X c #4D8F32",
"7X c #4BA337",
"8X c #53A63A",
"9X c #4BA32D",
"0X c #62873C",
"qX c #3D8D42",
"wX c #598844",
"eX c #479844",
"rX c #529246",
"tX c #6B8947",
"yX c #4CA243",
"uX c #54AA45",
"iX c #56B246",
"pX c #63A944",
"aX c #968C39",
"sX c #A5826B",
"dX c #BB957B",
"fX c #B4866F",
"gX c #AC9F41",
"hX c #C39378",
"jX c #CF8A75",
"kX c #EE8677",
"lX c #FDEC65",
"zX c #CA9D81",
"xX c #C9A285",
"cX c #DBAD8E",
"vX c #D4A789",
"bX c #DFB191",
"nX c #DEAE90",
"mX c #E5B594",
"MX c #E8B796",
"NX c #EAB997",
"BX c #ECBB99",
"VX c #E4BC99",
"CX c #F1BE9C",
"ZX c #F4B394",
"AX c #E5AB8E",
"SX c #F3BEA1",
"DX c #F4C19E",
"FX c #E7C09B",
"GX c #FFE182",
"HX c #FAC7A3",
"JX c #F4CCA5",
/* pixels */
"x z r.0.g 7.u.e.0.y.i.x 0.3.3.0.z r.q.9.w.w.9.r.q.0.z e.0.0.t.p.q.q.0.z z r.0.0.q.0.e.g 9.q.z z q.q.w.0.e.e.0.9.9.0.9.g 0.0.z e.",
"x 0.i.w.i 9.w.w.0.z q.i.y.q.9.0.0.r.r.0.0.0.z q.y.z z q.w.w.z q.y.e.e.0.r.0.0.0.z z 0.z 0.i.z x r.y.w.z 0.q.e.y.r.z q.q.0.z 0.0.",
"9.0.p.y.3.3.9.x 9.9.0.0.z z q.9.9.0.z z 0.w.z r.y.w.0.9.3.g 0.9.9.0.9.i 0.0.3.3.0.z i.0.z i.y.q.q.0.0.g w.0.0.0.z z q.0.9.0.0.r.",
"3.4.7.4.3.w.w.g 3.3.i 3.9.0.i <.3.e.e.0.9.3.3.3.3.w.w.3.3.3.3.i i 3.3.3.<.3.4.w.e.0.g 9.9.3.3.0.9.3.3.3.g i 3.w.0.9.3.<.s.w.0.z ",
",.6.2.2.6.a.<.u 6.6.,.8.a.i ,.4.l.l.6.4.4.<.6.u ,.4.a.4.u ,.l.4.4.a.<.<.,.6.l.a.4.4.u 4.4.,.4.a.6.,.,.l.6.,.a.6.4.,.1.f.l.4.3.i ",
"5.g.k.5.A j.g.N.g.5.F 5.tX5.F j.tXx.A A A A g.f.d.A d.j.f.N.g.A 1 z.z.D d.tXj.D A A A k.g.f.1.D j.f.j.g.D > 5.N.1.D <X0X1.A 2.,.",
"{ wXrX+.C +.M.h.{ - > Z M.wX+.<XpX<XS F S S j.wX,XC C h.rXh.n O O + 2 ; ; 2 2 +.F S S :.wXwXS C -.,Xh.S n > Z wX<X` 9XpX,XZ F 5.",
"V V OX! V O.! V [ n n n S ,X5X6X8X) ! -.:.O.V +.+.C C V V n - . . . . . . . . C S h.O.I R &X! C ! ! V V C n V +.rX2X>X7X_ ! h.h.",
"/ P XX]./ ;X$Xm B B [ B m =.&X_ |.^ ].eX=XO.! .X;           o e e e e e e e e   Z yX@.P ~ oX_ _ 3X*.m B B U m V &X.X]..X( .XrX:.",
"W ;XXX%X[.[.$XI M %.eX$XI T %.K W ].$.[.T E O.- < % % % % % = e e e e e e e e % < n I #.3X}.&X=.=.&.I  .;.eX*.I / P T $..X$.$.R ",
".X*XP %.qXm m &.| Y &.3XW P | Y W $./ P G $.Z   = d t t t t t e e e e e e e e f %   V =X=XI :.;.m U *.U Y *XqXU R K Y @.]./ P K ",
"W @.T | %.b K eX;XK G $.#.#X;.%.&./ ].-X].O + 8 8 e e e e e e e e e e e e e e e 8 9 X ; #.| |  .N T 4XXXK Y #X#.$X&.@.#.W ].%X[.",
"#.#.%.| B U #.&X1X_./ P T %.%.....&.-X$.V o % t e e e e e e e e e e e e e e e e t e o + [  .Y I | #.-X-X$.T P E &.@.@.W |.1X].}.",
"$X..Y =X=X/ / E _.]./ P @.T [.#./ &XiXn   e e e e e e e e e e e e e e e e e e e e e t =   n eX%.T / ~ ].]./ Q E P =X#.#.-X>XoX1X",
";.I m ;.;XP T T ]./ W .X.X$.-X/ }.$.n < % e e e e e e e e e e e e e e e e e e e e e e 8 % + n =.E P T &.W ~ ].].}.-X/ .X.XoXuX|.",
"} B } @.&.&.=X%.X.| .X5X7X|.|.( |.!   % f e e e e e e e e t t t t t t e e e e e e e e e f $   O.[.$XX.| W XXyX1X X X) .X( ) 2XE ",
"m }  . .} X.;.} m I Y ) 7X9X8X5XXXR   % d e e e e e e e e 9 9 9 9 9 9 8 e e e e e e e e t $   I @.X.} M I E XX8X>X8X2X}.@.@.&.P ",
"I } M M  .} J m | =X#.~ >X9X5X_ E V   % t e e e e e e e e U.T.T.T.T.T.p.8 e e e e e e e t $   B T I m %.=X/ ~ 1X8X>X_ / W Y Y m ",
"Y T T ..}  .@./ $X&X}.>X2XoX X) 2X!   % t e e e e e e e t vXHXDXDXCXHXfX8 t e e e e e e t $   B ......;X&X].4X1X X'.`.4X#.Y I m ",
"..#..XeX%.} @.( ]._.@X2XP / eX X>X!   % t e e 8 T.hXhXhXhXcXmXmXmXmXMXvXhXhXhXzXU.9 t e t $   I T @.&.].}.4X3XL ) 7X X2X].[.%.@.",
"Y [.yX*X} I #.^ ( 7X@X&XU I 3XoX7X+.  % t e t e fXHXBXBXBXMXMXMXMXMXMXNXBXBXNXHXE.9 d e t $   m P $.#.$.4X-X[.G ~ 2X X5X X.X$..X",
"G .XXXT m I .X) ) 4X( P ..@.@.#.7X-.  % t e 8 = fXCXmXmXmXMXMXMXMXMXMXMXmXmXmXHXT.= t e t $   b P [.@..XyXE G #./ ~ ) 8X+XE E ].",
"( $.#.P H #.XX^ E $.#.#.&.W L / +X*.  % d 8 t.T.zXBXMXMXMXMXMXMXMXMXMXMXMXMXMXCXhXT.f 8 t $   m ].].T / ]./ ( [.Y L _ 1X.XW / .X",
"2X].#.L ( 4X+XE G E #.%.%X/ W $X|.!   % d 9 T.HXmXmXmXmXmXMXMXMXMXMXMXMXmXmXmXmXBXCXc 8 t $   =.4X|.W G E ( ].[.| &..X$..X@.@.;.",
"|.XX( ^  X@X_.P E oXXXT | K K W $.V   % d 9 U.CXU.f d E.HXmXMXMXMXMXmXNXHXT.f d T.BXc 8 t $   .X+X( E E XX[.E W H K @.%.&.| B ] ",
"^ |.+X|.@X@X^ $.&X4X&.Y %.@.W [.;XO.  % d 9 U.DXT.t.t.T.hXcXNXMXMXmXNXvXdXU.p.v Q.BXc 8 t $   oX+X( `.-X-XW E $./ / $X;X&.| M [ ",
"_.~ ) >X@X>X>XXX$XI m ;.$X].4X4XXXV   % d 9 T.CXmXmXHXE.= zXBXmXMXmXDXQ.= fXHXmXMXmXc 8 t $   }.:X+X|.[.K H #..X.X4X1X].Y M M  .",
"&X&X].)  XuX4X&.I N o.X.@.].|.}.-X-.  % d 9 T.CXMXcXm.Y.fXcXNXmXNXNXNXzXQ.B.m.mXNXmXc 8 t $   oXuX-X#.Y M  ...@.].|.'.2X=Xm I %.",
"..T %XXX|.) T H M ] o.} U ( oX1XiX-.  * c 9 T.CXMXvX@ n.HXmXmXMXcXvXmXNXHXC.@ mXBXmXc e c &   =.$.P I } ] o.} | $. X>XiX[.I &.[.",
"T K &..X( %X#.M M M M b K [.;X].2X!   aXlX= U.DXMXvX@ m.DXmXmXDXm.X bXMXBXC.@ mXBXmXd 9.lXa.  *.*X| m M N M M Y &XoX|.+XE [.eX.X",
"W %X%X&X]..X*X .} %.=X#.m %.#XY [.*.  R.GXU.fXBXMXnXn.sXCXmXmXDXm.X nXNXMXW.B.mXMXmXT.E.GXa.  *.*X=X} I %.=X| m &.@.W $.[.[.[.@.",
"}.3X/ [..XK U %. .T -X3XY I } H ..O.  Y.HXBXBXmXMXMXDXCXmXMXmXDXm.3 mXNXmXCXDXMXMXMXCXNXSXC.  *.K U X.| W eX*XK K Y I ..[./ T Y ",
"$.&.I | %.b K *X$XK L .X#.#.%.W ].W V { k mXMXmXmXmXmXmXmXBXzXb.5 3 nXNXmXmXmXMXMXmXBXdXj 2 V %.b I *X&.H ..%X/ #.@...&.@.$.$.( ",
"E / @.Y I m T 3XeX#.T | | &.$./ / / :Xn . bXMXMXmXMXMXmXmXBXdX5 5 7 cXMXMXMXMXMXMXmXBXsX  - T I } @.eX;X/ P E E [.[.@.#.#.-X|.`.",
"}./ W &.| @.&.#.XX.X%.I | P ) ^ Q |.7X- . JXDXmXMXMXMXMXMXHXHXCXCXCXHXDXMXMXMXMXMXmXHXdX  - %XP | &.[.|.].#.L P P $.W / &X5X'.@X",
"$.P H $XqXU P P $.#.T @.[.( 1X^ _.|.+X-.Z n.fXCXmXMXMXMXMXR.n.B.B.B.n.sXBXMXMXMXMXmXR.8.; C 3X.XY U P $.@.P ( ].( &X/ [.&XoX8X X",
"| M m %.=X&..X#.#./ }.1X X|.oX~ _._./ yX&X  u.CXmXmXmXmXmX<           7.BXmXmXmXMXbX+ O J I &.$X#.[.@.#.%.=X4X|.|.|.E ].( ].eX].",
"] o.X. .| %.&.P m L _  X8X2X5X4XXX( W [.| m - + fXHXCXDXDXnXcXcXcXcXcXmXDXDXCXHXR.X V N }  . .| #.&.Y m Y #.4X7X>X7X1X[.#.@.$XU ",
"] o.] M } | I b K @.E ~ @X8XuX&X~ W Y %. .N < 0 U.sXW.W.W.sXsXsXsXsXsXW.W.W.W.sXm.= - N  .M B } Y H K I @.P P 5X8X8X|./ @.| %.m ",
"B  .I Y  .X. .| $X3X].}.3X3X.X~ oX/ I } M   q !.9                               a !.o O | I }  . .| Y %X-X$.oX5X>X'.) &X| Y I m ",
"T / #.%X@.| %.%..X|. X4X$.*.3X'.2X|.].n O S.a 0 Z.S.W.Y.n.n.B.W.W.R.B.n.n.R.R.S.a 0 A.l ; [ =XT P %.#.]._.@X5X_ `.>X|.5X.X#.@.T ",
"..[.yX3X..} X.@.( 2X>X-XP K 5X>X>X X}.; . !.A.  D.!.ZXbXxXxXvXCXDXBXxXxXxXmXZX!.a   K.F.  { *XI U @.#.$.2X2XoXG ~ yX X@XoX].].$X",
"K [.-X@.M } #X$.$.yX_.P @.T ) '.9X-.X   . I.A.  D.I.K.(.VXmXcXdXdXdXmXmXmX).K.!.a   G.F.    X N T [.@.[.yX( W / | $X}.7X@X_ #.$X",
"E $.[.K m | [.~ / .X$.W %.@.L ~ 9X`   = s I.A.  D.~.H.(.FXMXcXdXdXdXmXMXVX).H.!.a   G.G.q $   m @.&.@.&..X/ / &.| I ( 7X|.Q W &.",
"@X) #.K W 2X+X( P W #.&.=X/ #.].|.!   A.!.I.A.  D.~.H.(.FXMXcXdXdXdXmXMXVX).H.!.l   G.P.!.q   *.4X&XP L W #.[.[.T T .X.X[.@.&.$X",
"@XXXW P  X>X`.E L &.&.#.&.G G / _.O.  a I.I.A.  D.I.L.^.).hXxXcXcXcXxXjX).^.K.!.l   G.L.I.q   OX+X) G E [.].$./ G P $.#.&.%.I B ",
"^ {.-X].'.@X`.( XXeX$XT W E Q / XXO.  A.~.~.A.  D.I.L.L.H.jXxXmXmXbXxX/.H.L.K.!.a   G.L.~.q   OX X_ ( &XeX$.L W P G ( .X&.Y N M ",
"_.^ |.2X X X|.}.%X%.I ..[.}.-X4X:XO.  w I.P.Z.  D.I.L.L.L.AXbXdXdXdXBXkXL.L.K.!.l   G.H.P.q   oX@X}.XX=XW H $.%X.X3X4XoX/ I ] o.",
"oX|.^ '.@XuXyX.XX.m I @.@.].-XXXC Z B.Q.(.kXJ.  D.I.L.L.L.jXvXvXvXvXvX(.L.L.L.I.a   /.(.(.E.n.Z -.5X=.| m J ..#.[.:X|.|.].K B %.",
"=..X X`.@X@X/ T I M ] } ..#.{.-XO * HXJXVXJXY.  S.L.K.K.K.Q.dXMXMXmXdX/.K.K.K.I.a   xXJXFXHXDXo ; ^ R M M } Y T ) |.+XuX-XL / $.",
"O.V $. X_._./ B M M ] N } $X;XXXO < mXmXmXHXY.  6 j j j k j n.lXlXlXk j j j j k *   zXBXmXMXcXo ; E H M [ [ B U  X>X1XeX/ #.5X'.",
"O.*.%X}.) ;X*XB B O.>. .B ;.$X/ O < mXmXmXHXY.  # 5 5 5 5 5 k gXgXgX5 5 5 5 5 5 #   zXBXmXMXcXo - #XM ]  .>. .J }.) / .X.X.X-X$.",
"@.eX#.$X$XT @.O. .%.5X,XU B O.K   < BXDXBXHXY.                                    X vXHXCXHXMXo O %.| } ;.rX=XH | | K W .X/ @.I ",
"].[.K X.;.m b =X;.K E 1X#.Y ..T C Z 7.u.7.m.6   # 3 3 3 3 X X ; n n   X 3 3 3 3 @   7.C.u.u.7.n ; U *X@.K &.*X.. .| T #.$.#.@. .",
"/ @.Y B  .m R eX3XP G / #.&X%X#.{.R             4 v.c.c.c.X O ! / -.  # v.c.c.v.3             [ I *.rX,XG K *.-.,X=.#.$./ .X&X=.",
"&.*.@.*.U O.-.=XOX' h.S ! 6X6X-.oX_ XX}.$..X-   4 c.c.c.c.X O -.+.Z   # c.c.c.c.3   *.$XO.U >.B | -.h.+.` OXS ' 6X,XOXOX) +X}.oX",
"h.U R *X=XO.+.S F f.N.D A D f.d.<X6X-.6X6XoXn   5 7 7 7 7 X O wXk.A   # 7 7 7 v.3   =.[.R U eX=.! S F D 0X<XD D 1.g.d.<X,X` >X X",
"D +.+.O.-.h.D > A V.2.: , , ,.A 1.j.D wXh.+.-   5 j 7 j 7 . + g.1 :   # j 7 7 j *   S S +.+.+.-.-.S > 1.V.D 1 , , 2.1 d.j.' wX+.",
"A j.5.F F N.N.A u 6.i y r i i u u ,.A f.A > 5.5.2 2 5.N.2.: 4.4.y y r y i r u ,.2.A > 5.N.A > A N.g.1 4.6.,.u y h y u ,.,.,.6.> ",
"4.l.u : : u V.6.i y i w.x 0.0.9.h p p u : r a.6., : , 8.l.i 3.u h x 0.0.q.9.r y y p p 6.a.1 : : ,.V.4.i u 3.x v t.x g h y u u , ",
"3.i u y y h w.i 3.g i g g e.q.q.0.9.<.9.h 3.3.p u r i 4.4.i g g g g w.e.z q.0.x 0.h i 3.h y p y ,.4.i 3.3.g x x t.q.x 0.g x 0.h ",
"0.0.g 0.w.g h y g w.9.e.e.9.9.q.r.e.w.e.0.0.9.i 3.0.0.g u i 0.0.w.0.w.w.e.9.q.q.q.q.9.0.9.i 0.0.3.h r 0.w.0.y.w.0.y.q.0.y.e.q.0.",
"z 9.0.y.q.w.0.g 9.y.e.9.9.0.t.p.e.y.0.0.q.0.0.0.y.s.3.q.0.g q.y.q.0.0.0.e.i.q.0.0.e.9.3.9.w.s.y.y.y.i 3.e.r.0.w.x 0.i.w.e.9.0.0.",
"q.r.0.9.z 0.s.w.0.0.0.y.0.x t.p.y.g u.w.0.r.r.x r.4.3.p.p.z q.r.i.t.z q.i.i.z z q.g 9.0.0.0.x g q.p.0.9.r.q.q.z x t.p.0.3.e.0.r."
};
