/* XPM */
static char *cd4a0a551781440b9982d480d8ce51ff[] = {
/* columns rows colors chars-per-pixel */
"64 64 159 2 ",
"   c #140D16",
".  c #180C16",
"X  c #160D1B",
"o  c #190D1C",
"O  c #1C111F",
"+  c #190624",
"@  c #150C21",
"#  c #1C0D25",
"$  c #1E062A",
"%  c #1F0F2A",
"&  c #1D1125",
"*  c #1F1926",
"=  c #1E112A",
"-  c #1E192A",
";  c #1E0C30",
":  c #1E1131",
">  c #22062C",
",  c #210D2D",
"<  c #201427",
"1  c #221E27",
"2  c #22132C",
"3  c #28142F",
"4  c #25192E",
"5  c #281B2F",
"6  c #200530",
"7  c #280736",
"8  c #250E33",
"9  c #290F36",
"0  c #2A033C",
"q  c #270D39",
"w  c #2B0D3B",
"e  c #300F3E",
"r  c #251432",
"t  c #291336",
"y  c #251932",
"u  c #291A34",
"i  c #271238",
"p  c #2C133B",
"a  c #271A38",
"s  c #2B193A",
"d  c #31153E",
"f  c #32183F",
"g  c #320E43",
"h  c #2E1542",
"j  c #2F1248",
"k  c #321543",
"l  c #331944",
"z  c #3A1D46",
"x  c #35154A",
"c  c #39174D",
"v  c #35194A",
"b  c #3B1C4D",
"n  c #371A50",
"m  c #3C1C52",
"M  c #3A2045",
"N  c #372249",
"B  c #3E224B",
"V  c #3E2353",
"C  c #3F2258",
"Z  c #411D55",
"A  c #441F5B",
"S  c #481E5E",
"D  c #41224C",
"F  c #422355",
"G  c #462B53",
"H  c #44235C",
"J  c #49245D",
"K  c #462B5A",
"L  c #4B2B5B",
"P  c #4D325D",
"I  c #51355E",
"U  c #4C1F60",
"Y  c #462360",
"T  c #4A2462",
"R  c #472963",
"E  c #4D2B63",
"W  c #4F286B",
"Q  c #4F2C69",
"!  c #502666",
"~  c #512C60",
"^  c #502866",
"/  c #532D67",
"(  c #54256B",
")  c #54276A",
"_  c #55266C",
"`  c #512B68",
"'  c #502C69",
"]  c #542C6A",
"[  c #512A6D",
"{  c #542D6A",
"}  c #5B2E6F",
"|  c #592E6D",
" . c #4E3161",
".. c #513160",
"X. c #503061",
"o. c #513460",
"O. c #563167",
"+. c #543365",
"@. c #583366",
"#. c #593A66",
"$. c #583E65",
"%. c #593A66",
"&. c #533569",
"*. c #57316C",
"=. c #56306D",
"-. c #54336C",
";. c #55336B",
":. c #58316A",
">. c #593468",
",. c #583668",
"<. c #5C376A",
"1. c #5A306F",
"2. c #59336E",
"3. c #5D316E",
"4. c #5B366C",
"5. c #5B356E",
"6. c #59336D",
"7. c #56396B",
"8. c #5A386A",
"9. c #5C3868",
"0. c #5A3A6B",
"q. c #562D71",
"w. c #5B2D75",
"e. c #5C2E74",
"r. c #573370",
"t. c #5B3171",
"y. c #5A3372",
"u. c #5E3271",
"i. c #5D3073",
"p. c #5D3372",
"a. c #5B3570",
"s. c #593572",
"d. c #5E3473",
"f. c #5F3773",
"g. c #5E3174",
"h. c #5E3176",
"j. c #5D3277",
"k. c #5C3574",
"l. c #5C3273",
"z. c #5E3B71",
"x. c #5F3972",
"c. c #5F3877",
"v. c #5D3A73",
"b. c #5F367C",
"n. c #5E3379",
"m. c #602E77",
"M. c #612F79",
"N. c #603272",
"B. c #603273",
"V. c #603473",
"C. c #613374",
"Z. c #603276",
"A. c #623B70",
"S. c #603A75",
"D. c #613479",
"F. c #603779",
"G. c #63357D",
"H. c #613379",
"J. c #614079",
/* pixels */
"4 4 4 4 4 4 4 4 4 4 4 4 4 4 4 4 4 4 5 y a r a y 4 * 4 4 4 4 r r a 2 4 4 y r y r y y r r 4 4 4 4 4 4 4 4 4 4 4 4 4 4 4 4 4 4 4 4 ",
"4 4 4 4 4 4 4 4 4 4 4 4 4 4 4 4 u 4 4 4 a s y 2 4 4 4 4 u s t p t y u 4 y y t s y - u a < 4 4 u 4 4 4 4 4 4 4 4 4 4 4 4 4 4 4 4 ",
"4 4 4 4 4 4 4 4 4 4 4 4 4 4 4 4 y 2 y 2 y 4 4 4 4 4 4 s P -.' =.+.o.a = 4 a +.+.u & y 4 < 4 u 2 4 4 4 4 4 4 4 4 4 4 4 4 4 4 4 4 ",
"4 4 4 4 4 4 4 4 4 4 4 4 4 4 4 4 4 - y y y 4 u 3 s s 9 d -.F.h.h.p.4.p i y s 8.,.s y y 4 4 4 y y 4 4 4 4 4 4 4 4 4 4 4 4 4 4 4 4 ",
"4 4 4 4 4 4 4 4 4 4 4 4 4 4 4 4 1 1 4 4 4 s K E E E E ` d.V.C.B.p.2.{ E p r l z L L r 4 1 1 y s y 4 4 4 4 4 4 4 4 4 4 4 4 4 4 4 ",
"4 4 4 4 4 4 4 4 4 4 4 4 4 4 4 4 * 1 4 2 y d &.J.s.c.b.b.p.3.B.B.V.h.G.y.k 8 8 w A.9.d 4 4 4 4 r y 4 4 4 4 4 4 4 4 4 4 4 4 4 4 4 ",
"4 4 4 4 4 4 4 4 4 4 4 4 4 4 4 4 y y 2 u G G b b 2.y.W [ W ^ W ! ! ( w.p.L F ~ L v B G G s y 4 4 4 4 4 4 4 4 4 4 4 4 4 4 4 4 4 4 ",
"4 4 4 4 4 4 4 4 4 4 4 4 4 4 4 y y y 4 s $.#.d w s.k.Y Y A Y H J T T F.p.v.v.k.4.w w >.<.p y 4 4 4 4 4 4 4 4 4 4 4 4 4 4 4 4 4 4 ",
"y y y y y y y y y y y y y y y y y y r p z D L J E E J H H H v b v m ( _ E E E E H E | :.p 4 < 4 4 y y y y y y y y y y y y y y y ",
"y y y y y y y y y y y y y y y y 2 y s t 8 d +.v.Y H F H J H l p h k S S H F H J k.h.H.y.t 4 u 4 y y y y y y y y y y y y y y y y ",
"y y y y y y y y 4 4 y y y y y 4 4 4 y s t p E -.H H J J m b k p k l b m H H J R h.e.n.2.p 2 y 2 y y y y y y y y 4 4 y y y y y y ",
"4 4 4 4 4 4 4 4 4 4 4 4 4 4 4 2 * 4 2 r i w V F H J R H k h h l k p d l V H H T l.n.n.| k r y 4 4 4 4 4 4 4 4 4 4 4 4 4 4 4 4 4 ",
"4 4 4 4 4 4 4 4 4 4 4 4 4 4 4 2 < 4 4 s v n H J J F m b k k k k d p p t N V T T ' | h.| k i y 2 4 4 4 4 4 4 4 4 4 4 4 4 4 4 4 4 ",
"4 4 4 4 4 4 4 4 4 4 4 4 4 4 4 4 2 y % t 7.v.J J Y F x l k l l d 9 i 8 8 s l A T F H C.p.g 8 r * 2 4 4 4 4 4 4 4 4 4 4 4 4 4 4 4 ",
"4 4 4 4 4 4 4 4 4 4 4 4 4 4 4 4 2 s l v &.2.A Y Z F l d d p p p i i i i p d Z F H J } ] Z l = - 2 4 4 4 4 4 4 4 4 4 4 4 4 4 4 4 ",
"2 2 2 2 2 2 2 2 2 2 2 2 2 2 2 2 r i 7.7.H H Y H k x p d k p w 8 r 8 8 9 9 9 k k F F J U k.7.y * 2 2 2 2 2 2 2 2 2 2 2 2 2 2 2 2 ",
"4 4 r 2 2 2 2 y y 2 2 4 < < 2 r i w 7.&.J J F F x k d f d d i i r r t 8 r r t d F Z Y T 4.+.s 2 2 4 y 2 2 4 4 2 2 2 2 2 2 2 4 4 ",
"4 2 2 2 2 < 2 r r r 4 < & < 2 t q h 2.7.E F x k k k d l d d i i r r i 8 ; : r t h x H R 5.@.p r 2 2 2 2 2 2 2 2 2 2 2 2 2 2 2 2 ",
"2 2 2 2 2 < 2 2 r r 2 = < 4 , t w x E -.Y F x x k k p f p p i i i r 8 8 % % , 8 k c H H s.+.w t 2 2 2 2 2 2 2 2 2 2 2 2 2 2 2 2 ",
"2 2 2 2 < < 2 2 a r y < 4 4 8 8 +.+.J J J H k k k k p p t i 8 i i r 8 8 % = , 8 p k F H v.>.w 8 r 2 2 2 2 2 2 2 2 2 2 2 2 2 2 2 ",
"2 2 2 2 2 < 2 2 2 = 2 = < 2 p k 7.4.F H J J x x k l d p t 8 8 i i r % % = = % , d x H H 4./ k 9 r 2 2 2 2 2 2 2 2 2 2 2 2 2 2 2 ",
"2 2 2 2 2 < 2 2 y y y 4 4 s K +.7.4.J J H F k k k l l d i i r i r ; % % = = = , p x F H 4.4./ P a 2 2 2 2 2 2 2 2 2 2 2 2 2 2 2 ",
"2 2 2 = 2 < < 2 = = = 2 % i 7.v.5.-.H H H H v k k d p p i i 8 r ; % % = = = & % p l H Y 2.2.c.7.a 2 2 2 2 2 2 2 2 2 2 2 2 2 2 2 ",
"2 2 2 = < < < < 2 2 = 2 2 9 7.r.Y E J H c x k x k d i i r r , , % % = = & # # @ r i x c J W k.+.i 2 = < 2 2 < 2 2 2 2 2 2 2 2 < ",
"2 2 2 2 < < < < 2 2 2 2 , p -.y.Y H H H x k x k k d 9 i r r % % % % = = & & o @ r i k x A T h.-.t < 2 2 2 2 2 2 2 2 2 2 2 2 2 2 ",
"2 2 2 2 2 < < < 2 2 = 2 , i 2.y.Y H H F x k l k k p 9 i r r % % % = = & & o o @ 2 i d x F T h.2.t < 2 2 2 2 < 2 2 2 2 2 2 2 2 2 ",
"2 2 2 2 2 < < < 2 2 = 2 , w 2.l.Y H H F x k k k k p t i 8 r % = % = & & o X X @ 2 t d x F T h.2.i = 2 2 < 2 < < 2 2 2 2 2 2 2 2 ",
"2 2 2 2 2 < < < 2 = = 2 , w 2.h.Y H H F x k k k d p t i 8 y % = % % # X o X X @ 2 i p x Z T h.2.t = 2 < = 2 < < 2 2 2 2 < < < < ",
"< < 2 2 2 2 2 2 2 = = = , p 2.h.Y J H F x k k d d p i i i y % = < # X X o o X @ 2 a p l F Y h.2.9 % < < < 2 < 2 < < 2 2 2 2 2 2 ",
"< < 2 2 2 2 2 2 2 = = = , p 2.p.Y J H F x k d d d p i i i r % = < # X   . o X @ = a p l F Y h.2.9 % < < < 2 , 2 < < 2 2 2 2 2 2 ",
"< < 2 2 , , , 2 < = = = , p :.p.Y H H F x k d d d p i i i r % % < # X   . o o @ = a p l F J H.e.9 % < < , 2 2 2 < < < < 2 2 < 2 ",
"< < 2 2 , , , 2 < = = < , p :.p.Y H H F k k d d d d w i i r % % = & X   . o o @ = y p l F T C.2.t % < 2 , 2 2 2 < < < 2 2 2 < < ",
"2 2 2 2 < < 2 2 2 2 < % 8 d { k.Y H J F k k d k d k i i i r % = = & X   X X o o < y p x F T p.:.t % 2 < 2 2 , 2 2 2 2 2 < < < < ",
"2 < 2 < < < 2 2 2 < < , 8 w { y.T H J F k p p p k k i i 8 i % = = & X X X X o o < r p x A T p.:.t % 2 2 < 2 2 2 2 2 < < < < < < ",
"2 2 2 < < < , 2 2 < < % , w 4.d.H H H F k h d k k k i i 8 i % = = & X X X X X X 2 r h x A W p.:.t % < 2 < 2 < 2 < < < < 2 2 2 2 ",
"2 2 2 < < < 2 2 < = < < , 8 +.=.W W H F k k k k k k i i 8 r % = = & X X X   X o < r h x F T h.:.t % < < < < , < < < < < 2 2 2 2 ",
"= = < < < < , = < = < & , 9 ,.5.y.2.Y H k k k k k k t i 8 r % = = & o X X   X X 2 i h x A T h.2.9 % , 2 < 2 < 2 , , < < < < , , ",
"= , < < < < , = < = & # , t K +.d.k.J H x k k k k k t i 8 r % = = = # o X   X X 2 i h x A T h.2.9 % < < % < % < , , 2 , < < , , ",
", , , < , , < = # = < 2 , , 9 w 2.p.J H x k k k k k i i 8 r % = % = % # X   X X 2 i h x A T h.2.9 % , , < < % < , , , , < < < , ",
", , , , , < , = < = & < < , , w { p.J J x x k k k k t 9 8 i % % % < = = o   X o r i h x A T h.2.9 % , 2 , 2 < 2 , , , , < < < 2 ",
", , , , < < < = = & = = < , , w 2.h.p.| J F k k k k d p i r r r % % 2 = & O X o s h V F H T h.2.9 % < < < 2 , % , , , , < < < < ",
"< , , , < < = = < & < = 2 2 , 9 2.C.p.y.J F x k k k d p i 8 r r 2 % = = & & o # s l H J H J e.2.9 % < < < 2 , , < , , , < < < < ",
"< < , , 2 < = = < % < % 2 , % 9 | h.p.2.J F x k k k d p 8 8 r r 2 % = % & = # % i l F J J J p.2.9 % , , % 2 , , < < , , 2 2 < < ",
"% % % % % % = & & % % % % % % 8 2.C.C.y.Y H x k k k d p i 8 8 i = % = % = < , 8 h v F J J H y.+.8 % % % % < % % % % % % % % % % ",
"% % % % % = % & % % , , % % # 8 :.C.h.y.T F x k k k d d p t i r % = % % % , t p k k H J S H v.@.8 % % % % < % % % % % % % % % % ",
"% % % % % = % & < % , , , % # r | h.e.e.T H x k k k d k f p p i % = = = % 8 p l k k H H J J >.@.8 % % % % < % % % % % % % % % % ",
"& % % % % % % & < , , , , % # r 3.H.h.k.{ ' Z b k k d d f p i 8 : : = = % 8 h l b F H J E E m z 8 % 2 < % < % < % % % % % % % % ",
"% % % % % % % % , , , , % % # 2 >.p.p.F.y.y.J F k k k d d p w 8 r r % % % 8 p k F J F Y s.2.w $ r % % % % % % % % % % % % % % % ",
"% % % % % % % % % % % % % % % , M b y.H.e.} T H m V k k x l p t r r 8 8 i i b b H H H R =.7.9 , , % % % % % % % % % % % % % % % ",
"% % % % % % % % % % % % % % % % # , 2.F.M.H.J F H V x x k l d f r 8 q w p l F J J Y H R v.0.8 , , % % % % % % % % % % % % % % % ",
"% % % % % % % % % % % % % % % % , 8 2.e.M.H.A H K H m b k k k d p p p h v b H H H T W Q F V 8 , , % % % % % % % % % % % % % % % ",
"% % % % % % % % % % % % % % % % , p 2.H.M.e.T H C H H F x k p p k k h k F H J H S T y.=.w $ 8 , , % % % % % % % % % % % % % % % ",
"% % % % % % % % % % % % % % % % % 8 -.F.m.e.W F H H J J b v l h k x v v H J J Y H Y s.-.8 $ , , % % % % % % % % % % % % % % % % ",
"% % % % % % % % % % % % % % % % , i -.h.H.C.H F J H H J F F l h j v V F J H A H H H S.@.r < # < % % % % % % % % % % % % % % % % ",
"% % % % % % % % % % % % % % % % $ i -.s.] ^ J E J H H Y H J n v x v F F J J Y Y E Y E G % # & = = % % % % % % % % % % % % % % % ",
"% % % % % % % % % % % % % % % % % 8 7.4.0 0 >.8.J J H H H Y H R R C K F H J T Y l.2.w 8 2 & & & = % % % % % % % % % % % % % % % ",
"% % % % % % % % % % % % % % % % # s K  .k g L +.J Y Y T T T T Y Y H H H H H T T l.=.w 9 , % = # = % % % % % % % % % % % % % % % ",
"% % % % % % % % % % % % % % % % # % $ w o.#.9 w >.4.d.d.J S T T Y Y H S F Y q.n.h.2.7 8 > $ , = % % % % % % % % % % % % % % % % ",
"% % % % % % % % % % % % % % % % < 2 8 8 P I > 8 +.@.-./ J J T Y T T T T T W e.F.h.2.e w w 9 , % % % % % % % % % % % % % % % % % ",
"% % % % % % % % % % % % % % % % # # , , , , , , 8 w w w +.>.-.4.2.2.p.y.4.4.p.p.p.2.+.I +.I 8 % % % % % % % % % % % % % % % % % ",
"% % % % % % % % % % % % % % % % < , % % # # 2 % , 8 6 q I 8.8.8.8.8.4.4.5.5.7.>.>.>.9.#.%.I 8 % % % % % % % % % % % % % % % % % ",
"% % % % % % % % % % % % % % % , # , , % = # # % , ; $ 8 8 t w w 9 w w w w w i p 9 p 9 9 i i , r % % % % % % % % % % % % % % % % ",
"% % % % % % % % % % % % % % % , , % , % % & # = % % % r + % , , % % % % ; ; % % # , $ , $ # % % % % % % % % % % % % % % % % % % ",
"% % % % % % % % % % % % % % % , , , , % # & & & = % % % % % , , , # # # ; ; % # # # , , # = % % % % % % % % % % % % % % % % % % "
};
