/* XPM */
static char *_b3adaa886604b2d8e33c78698d00ca9[] = {
/* columns rows colors chars-per-pixel */
"64 64 157 2 ",
"   c #010000",
".  c #0A0203",
"X  c #161609",
"o  c #1E1D0D",
"O  c #24080B",
"+  c #2D0A0E",
"@  c #310B0F",
"#  c #3B0611",
"$  c #3C0D12",
"%  c #1F230C",
"&  c #21200F",
"*  c #3D2316",
"=  c #373617",
"-  c #303815",
";  c #3A3518",
":  c #410F14",
">  c #441015",
",  c #4F1219",
"<  c #53141A",
"1  c #5B151D",
"2  c #4F211C",
"3  c #572E1F",
"4  c #403A1A",
"5  c #6E1A22",
"6  c #741B25",
"7  c #7B1D27",
"8  c #722325",
"9  c #7D2228",
"0  c #603B24",
"q  c #524F1F",
"w  c #534F23",
"e  c #525022",
"r  c #7F6732",
"t  c #525148",
"y  c gray32",
"u  c #841F29",
"i  c #8B1E2B",
"p  c #8D212C",
"a  c #95232F",
"s  c #98222F",
"d  c #9A2431",
"f  c #A22633",
"g  c #A82735",
"h  c #AB2836",
"j  c #B02937",
"k  c #B32A39",
"l  c #BB2C3B",
"z  c #8B7A3A",
"x  c #F5660D",
"c  c #F56116",
"v  c #F66B12",
"b  c #F5651A",
"n  c #F66D1E",
"m  c #F87715",
"M  c #F7721E",
"N  c #F77421",
"B  c #F77A24",
"V  c #F87E24",
"C  c #D79B3C",
"Z  c #F98425",
"A  c #FA8A26",
"S  c #F7852B",
"D  c #F88328",
"F  c #F98B29",
"G  c #FB9325",
"H  c #FA922B",
"J  c #FC9D2E",
"K  c #F99533",
"L  c #FB9D36",
"P  c #F99E39",
"I  c #FEA723",
"U  c #FEA826",
"Y  c #FDA52F",
"T  c #FEAB2D",
"R  c #FBA232",
"E  c #FEAD33",
"W  c #F9A13A",
"Q  c #FBAC3C",
"!  c #FFB336",
"~  c #FFB937",
"^  c #FEB63A",
"/  c #FEB93B",
"(  c #9E9340",
")  c #A09540",
"_  c #A39C43",
"`  c #AC9A41",
"'  c #A7A046",
"]  c #C9BA4C",
"[  c #C9BA51",
"{  c #FCAC4F",
"}  c #FEB342",
"|  c #FCBC42",
" . c #FCBC4B",
".. c #F9A35C",
"X. c #FEBB56",
"o. c #F9A46C",
"O. c #F9A77E",
"+. c #FAA87A",
"@. c #CBC357",
"#. c #FEC244",
"$. c #FCC44E",
"%. c #FECF4A",
"&. c #FDCB54",
"*. c #FDD454",
"=. c #FEDB55",
"-. c #F4D359",
";. c #FDDB5A",
":. c #FEE44C",
">. c #FEE656",
",. c #FEE25B",
"<. c #FEEC5D",
"1. c #FFF45C",
"2. c #FEC875",
"3. c #FECC7E",
"4. c #F3E364",
"5. c #FEE761",
"6. c #F6E865",
"7. c #FEEA63",
"8. c #FEE868",
"9. c #FFF165",
"0. c #FFF965",
"q. c #F6F06A",
"w. c #FFF469",
"e. c #FFFB6A",
"r. c #FEEA75",
"t. c #FEEB79",
"y. c #FFFF71",
"u. c #FEF07F",
"i. c #FBBA8A",
"p. c #FBC487",
"a. c #FECD83",
"s. c #FED085",
"d. c #FED492",
"f. c #FEEB80",
"g. c #FEEF9B",
"h. c #C9C5A3",
"j. c #CAC8BE",
"k. c #FBC6A4",
"l. c #FDE5A7",
"z. c #FEECB4",
"x. c #FEF4B4",
"c. c #C9C9C9",
"v. c #C9CACC",
"b. c #FEEDCF",
"n. c #FFF6C6",
"m. c #FFF8CE",
"M. c #FDE0D7",
"N. c #FEEED6",
"B. c #FDE9DE",
"V. c #FEF0D1",
"C. c #FFFBD3",
"Z. c #FEF2DF",
"A. c #FFFFD8",
"S. c #FFF3E3",
"D. c #FFFBF3",
"F. c #FFFFF9",
"G. c white",
/* pixels */
"f f f f f f f f f f f f f f f f f f f f f f f f f f f f f f f f f f f f f f f f f f f f f f f f f f f f f f f f f f f f f f f f ",
"f f f f f f f f f f f f f f f f f f f f f f f f f f f f f f f f f f f f f f f f f f f f f f f f f f f f f f f f f f f f f f f f ",
"f f f f f f f f f f f f f f f f f f f f f f f f f f f f f f f f f f f f f f f f f f f f f f f f f f f f f f f f f f f f f f f f ",
"f f f f f f f f f f f f f f f f f f f f f f f f f f f f f f f f f f f f f f f f f f f f f f f f f f f f f f f f f f f f f f f f ",
"f f f f f f f f f f f f f f f f f f f f f f f f f f f f f f f f f f f f f f f f f f f f f f f f f f f f f f f f f f f f f f f f ",
"f f f f f f f f f f f f f f f f f f f f f f f f f f f f f f f f f f f f f f f f f f f f f f f f f f f f f f f f f f f f f f f f ",
"f f f f f f f f f f f f f f f g g g g g g g g g g g g g g g g g g g g g g g g g g g g g g g f f f f f f f f f f f f f f f f f f ",
"f f f f f f f f f f f f f f f d a a a a a a a a a a a a a a a a a a a a a a a a a a a a a a f f f f f f f f f f f f f f f f f f ",
"f f f f f f f f f f f f f f h > . . . . . . . . . . . . . . . . . . . . . . . . . . . . . . a g f f f f f f f f f f f f f f f f ",
"f f f f f f f f f f f f f f j $                                                             a g f f f f f f f f f f f f f f f f ",
"f f f f f f f f f f f f f g k :                                                             a h g f f f f f f f f f f f f f f f ",
"f f f f f f f f f f f g p O O z @.[ [ [ [ [ [ [ [ [ [ [ [ [ [ [ ] h.v.c.c.c.c.c.j.[ ] [ [ [ * O < h f f f f f f f f f f f f f f ",
"f f f f f f f f f f f g u     _ e.9.9.9.9.9.9.9.9.9.9.9.9.9.9.9.1.A.G.G.G.G.G.G.F.w.9.9.0.9.%   $ h f f f f f f f f f f f f f f ",
"f f f f f f f f f f h l i     ( e.9.9.9.9.9.9.9.9.9.9.9.9.9.9.9.<.A.G.G.G.G.G.G.G.w.9.9.w.9.X   # l j g f f f f f f f f f f f f ",
"f f f f f f f f f g 1 > 3 _ _ C P W W W W W W W W W W W W W W W W ..o.o.o.o.o.o.o.W W W W W ` ' r > : p g f f f f f f f f f f f ",
"f f f f f f f f f h O   - e.e.L c n n n n n n n n n n n n n n n n v v v v v v v v n n n b n ,.y._     u g f f f f f f f f f f f ",
"f f f f f f f f f g +   = 9.9.L b N N N N N N N N N N N N N N N N N N N N N N N N N N N N N ;.e.(     u g f f f f f f f f f f f ",
"f f f f f f f f f g +   = 9.9.Q Z F F F F F F F F F F F F F F F F F F F F F F F F F F Z N N ;.e.(     u g f f f f f f f f f f f ",
"f f f f f f f f f g +   = 9.7.#.E ! ! ! ! ! ! ! ! ! ! ! ! ! ! ! ! ! ! ! ! ! ! ! ! ! / H n N ;.e.(     u g f f f f f f f f f f f ",
"f f f f f f f f f g +   = 9.7.#.E E E E E E E ! ! E E E E E E E E T T T E E E E E E ! H n N ;.e.(     u g f f f f f f f f f f f ",
"f f f f f f f f f g +   = 9.7.#.E E E E E E E R Y E / ^ ^ ^ ^ ^ ^  .X. .E E E E E E ! H n N ;.e.(     u g f f f f f f f f f f f ",
"f f f f f f f f f g +   = 9.7.#.E E E E E E E B b W 9.5.5.5.5.5.>.m.G.N.T E E E E E ! H n N ;.e.(     u g f f f f f f f f f f f ",
"f f f f f f f f f g +   = 9.7.#.E E E E E ! E B b W 9.5.5.5.5.5.>.m.G.N.T E E E E E ! H n N ;.e.(     u g f f f f f f f f f f f ",
"f f f f f f f f f g +   = 9.7.#.E E E E E E E B n W 9.5.5.5.5.5.>.n.F.b.T E E E E E ! H n N ;.e.(     u g f f f f f f f f f f f ",
"f f f f f f f f f g +   = 9.7.#.E E E ! H N V *.;.,.5.5.5.5.5.5.5.8.8.f.S.S.2.U E E ! H n N ;.e.(     u g f f f f f f f f f f f ",
"f f f f f f f f f g +   = 9.7.#.E E E ! F n B ,.7.5.5.5.5.5.5.5.5.,.>.r.G.G.a.I E E ! H n N ;.e.(     u g f f f f f f f f f f f ",
"f f f f f f f f f g +   = 9.7.#.E E E ! H M B ;.5.5.5.5.7.9.7.7.9.5.,.t.G.G.3.I E E ! H n N ;.e.(     u g f f f f f f f f f f f ",
"f f f f f f f f f g +   = 9.7.#.E E E ! H M B ;.5.5.5.5.W K K K K *.<.t.G.G.3.I E E ! H n N ;.e.(     u g f f f f f f f f f f f ",
"f f f f f f f f f g +   = 9.7.#.E E E ! H M B ;.5.5.5.5.D b n n b $.<.t.G.G.3.I E E ! H n N ;.e.(     u g f f f f f f f f f f f ",
"f f f f f f f f f g +   = 9.7.#.E E E ! H M B ;.5.5.5.5.S n N N n &.9.u.G.G.a.I E E ! H n N ;.e.(     u g f f f f f f f f f f f ",
"f f f f f f f f f g +   = 9.7.#.E E E ! H M B ;.5.5.5.5.L F H H F | %.&.d.d.X.T E E ! H n N ;.e.(     u g f f f f f f f f f f f ",
"f f f f f f f f f g +   = 9.7.#.E E E ! H M B ;.5.5.5.5./ ! ! ! ! E E T I I T E E E ! H n N ;.e.(     u g f f f f f f f f f f f ",
"f f f f f f f f f g +   = 9.7.#.E E E ! H n B ;.5.5.5.5.^ E E E E E E E E E E E E E ! H n N ;.e.(     u g f f f f f f f f f f f ",
"f f f f f f f f f g +   = 9.7.#.E E E ! H n B ;.5.5.5.5.^ E E E E E E E E E E E E E ! H n N ;.e.(     u g f f f f f f f f f f f ",
"f f f f f f f f f g +   = 9.7.#.E E E ! F n B ;.5.5.5.5.^ E E E E E E E E E E E E E ! H n N ;.e.(     u g f f f f f f f f f f f ",
"f f f f f f f f f g +   = 9.7.#.E E E ! F n B ;.5.5.5.5.^ E E E E E E E T T E E E E ! H n N ;.e.(     u g f f f f f f f f f f f ",
"f f f f f f f f f g +   = 9.7.#.E E E ! H M B ;.5.5.5.5./ E E E E ! ! ! } } ! E E E ! H n N ;.e.(     u g f f f f f f f f f f f ",
"f f f f f f f f f g +   = 9.7.#.E E E ! H n B ;.5.5.5.5./ E E E E *.,.r.D.D.3.I E E ! H n N ;.e.(     u g f f f f f f f f f f f ",
"f f f f f f f f f g +   = 9.7.#.E E E ! H n B ;.5.5.5.5./ E E E E =.<.t.G.G.a.I E E ! H M B ;.e.(     u g f f f f f f f f f f f ",
"f f f f f f f f f g +   = 9.7.#.E E E ! H n B ;.5.5.5.5.^ E E E Y *.<.t.G.G.3.I E E ! H n B ;.e.(     u g f f f f f f f f f f f ",
"f f f f f f f f f g +   = 9.7.#.E E E ! H n B ;.5.5.5.5.;.=.;.;.=.,.,.t.G.G.3.I E E ! H n N ;.e.(     u g f f f f f f f f f f f ",
"f f f f f f f f f g +   = 9.7.#.E E E ! H n B ;.5.5.5.5.5.5.5.5.7.5.,.t.G.G.3.I E E ! H n N ;.e.(     u g f f f f f f f f f f f ",
"f f f f f f f f f g +   = 9.7.#.E E E ! F n N 5.w.7.5.5.5.5.5.5.5.,.:.r.G.G.s.I E E ! H n N ;.e.(     u g f f f f f f f f f f f ",
"f f f f f f f f f g +   = 9.7.#.E E E ! Y H H W P  .7.5.5.5.5.5.,.g.x.l.+.O.{ T E E ! H n N ;.e.(     u g f f f f f f f f f f f ",
"f f f f f f f f f g +   = 9.7.#.E E E E ! ! ! M c L 9.5.5.5.5.5.>.C.G.M.x x G ! E E ! H n N ;.e.(     u g f f f f f f f f f f f ",
"f f f f f f f f f g +   = 9.7.#.E E E E E E E N b W e.9.9.9.9.9.<.A.G.B.n n H ! E E ! H n N ;.e.(     u g f f f f f f f f f f f ",
"f f f f f f f f f g +   = 9.7.#.E E E E E E E F Z L $. . . . . .| p.k.i.A Z J ! E E ! H M B ;.e.(     u g f f f f f f f f f f f ",
"f f f f f f f f f g +   = 9.7.#.E E E E E E E ! ~ H b n n n n n n v x m ! ! ! E E E ! H n B ;.e.(     u g f f f f f f f f f f f ",
"f f f f f f f f f g +   = 9.7.#.E E E E E E E E ! H n N N N N N N N N V E E E E E E ! H n N ;.e.(     u g f f f f f f f f f f f ",
"f f f f f f f f f g +   = 9.7.#.E E E E E E E E ! J B V V V V V V V V Z E E E E E E ! H n N ;.e.(     u g f f f f f f f f f f f ",
"f f f f f f f f f g +   = 9.7.#.E E E E E E E E E E E E E E E E E E E E E E E E E E ! H n N ;.e.(     u g f f f f f f f f f f f ",
"f f f f f f f f f g +   = 0.9.#.T E E E E E E E E E E E E E E E E E E E E E E E E E ! H n N ;.e.)     u g f f f f f f f f f f f ",
"f f f f f f f f f g @ . ; 6.4.#.E E E E E E E E E E E E E E E E E E E E E E E E E E ! H n N -.q.( . . u g f f f f f f f f f f f ",
"f f f f f f f f f f a d 9 & o ` 7.,.,.,.,.,.,.,.,.,.,.,.,.,.,.,.=.z.S.Z.Z.Z.Z.S.V.5.,.;.;.;.4 o 2 d a d f f f f f f f f f f f f ",
"f f f f f f f f f f g j u     ( e.5.5.5.5.5.5.5.5.5.5.5.5.5.5.5.>.C.G.G.G.G.G.G.F.7.<.5.7.7.o   $ k g f f f f f f f f f f f f f ",
"f f f f f f f f f f f g u     _ y.e.e.e.e.e.e.e.e.e.e.e.e.e.e.e.1.A.G.G.G.G.G.G.G.e.0.e.e.e.%   $ j f f f f f f f f f f f f f f ",
"f f f f f f f f f f f g d 6 7 0 e e e e e e e e e e e e e e e e q t y y y y y y t w e e e w 8 7 u g f f f f f f f f f f f f f f ",
"f f f f f f f f f f f f g h l #                                                             s k g f f f f f f f f f f f f f f f ",
"f f f f f f f f f f f f f f j $                                                             p g f f f f f f f f f f f f f f f f ",
"f f f f f f f f f f f f f f g 5 , , , , , , , , , , , , , , , , , , , , , , , , , , , , , < d g f f f f f f f f f f f f f f f f ",
"f f f f f f f f f f f f f f f g j j j j j j j j j j j j j j j j j j j j j j j j j j j j j h f f f f f f f f f f f f f f f f f f ",
"f f f f f f f f f f f f f f f f f f f f f f f f f f f f f f f f f f f f f f f f f f f f f f f f f f f f f f f f f f f f f f f f ",
"f f f f f f f f f f f f f f f f f f f f f f f f f f f f f f f f f f f f f f f f f f f f f f f f f f f f f f f f f f f f f f f f ",
"f f f f f f f f f f f f f f f f f f f f f f f f f f f f f f f f f f f f f f f f f f f f f f f f f f f f f f f f f f f f f f f f "
};
