/* XPM */
static char *d7b6c30f66ca44d0f80423af84f88709beh3HctSZJ5Lhqym[] = {
/* columns rows colors chars-per-pixel */
"64 64 252 2 ",
"   c #1D3D0E",
".  c #352D09",
"X  c #293A0A",
"o  c #36360D",
"O  c #3A3912",
"+  c #30330F",
"@  c #472E15",
"#  c #4B3419",
"$  c #483817",
"%  c #533B1C",
"&  c #573A1D",
"*  c #44330E",
"=  c #5C3D24",
"-  c #583C23",
";  c #633E25",
":  c #633E2A",
">  c #693F28",
",  c #663E31",
"<  c #0A580D",
"1  c #18570D",
"2  c #1B4B18",
"3  c #0C5B14",
"4  c #0D5C1B",
"5  c #055618",
"6  c #135D15",
"7  c #135D1C",
"8  c #1A5817",
"9  c #1D450C",
"0  c #2A4813",
"q  c #394816",
"w  c #285919",
"e  c #38541A",
"r  c #30490D",
"t  c #12640D",
"y  c #15690D",
"u  c #1B740F",
"i  c #0E6213",
"p  c #0B651B",
"a  c #136413",
"s  c #166A14",
"d  c #1A6C15",
"f  c #14641B",
"g  c #1B641B",
"h  c #16681C",
"j  c #1A6C1C",
"k  c #196515",
"l  c #1D7215",
"z  c #1E721B",
"x  c #15761A",
"c  c #0D600E",
"v  c #25691A",
"b  c #35671C",
"n  c #227514",
"m  c #237915",
"M  c #22751C",
"N  c #247B1C",
"B  c #2A7D1C",
"V  c #2A7819",
"C  c #36791C",
"Z  c #2D6A0D",
"A  c #0D5B21",
"S  c #095A21",
"D  c #165B22",
"F  c #365C25",
"G  c #204F22",
"H  c #146422",
"J  c #1A6422",
"K  c #1B6B23",
"L  c #186828",
"P  c #1D7123",
"I  c #1F722A",
"U  c #197728",
"Y  c #0F6829",
"T  c #236B23",
"R  c #276926",
"E  c #366926",
"W  c #227424",
"Q  c #257A23",
"!  c #2A7D24",
"~  c #23742B",
"^  c #2A7C2B",
"/  c #277829",
"(  c #327C2B",
")  c #377628",
"_  c #2C7A33",
"`  c #357B33",
"'  c #326A31",
"]  c #48461A",
"[  c #55451E",
"{  c #45571D",
"}  c #4B7D16",
"|  c #557C17",
" . c #4D7113",
".. c #494B22",
"X. c #5D4324",
"o. c #574826",
"O. c #475825",
"+. c #5A562B",
"@. c #5D5631",
"#. c #634225",
"$. c #6A4326",
"%. c #64442A",
"&. c #6A442C",
"*. c #64482B",
"=. c #6B492D",
"-. c #644A23",
";. c #64532E",
":. c #6C4632",
">. c #6D4A32",
",. c #664734",
"<. c #724B34",
"1. c #754C3A",
"2. c #655A33",
"3. c #734F37",
"4. c #4C6829",
"5. c #556B2E",
"6. c #556A35",
"7. c #447937",
"8. c #597938",
"9. c #4A712A",
"0. c #676538",
"q. c #62753C",
"w. c #747E0D",
"e. c #587A43",
"r. c #647843",
"t. c #717344",
"y. c #BA7F00",
"u. c #2C821C",
"i. c #2A8118",
"p. c #32861A",
"a. c #2C8224",
"s. c #2E822B",
"d. c #2B882B",
"f. c #328525",
"g. c #348B24",
"h. c #398D24",
"j. c #32842C",
"k. c #358A2C",
"l. c #3A8C2C",
"z. c #3B8229",
"x. c #3D9324",
"c. c #3C922C",
"v. c #379129",
"b. c #2C8232",
"n. c #338433",
"m. c #368B33",
"M. c #3B8C33",
"N. c #3B8B3C",
"B. c #378538",
"V. c #3D9334",
"C. c #3D923B",
"Z. c #3D9A3D",
"A. c #1E8637",
"S. c #5B8518",
"D. c #4F931F",
"F. c #688714",
"G. c #748A19",
"H. c #769418",
"J. c #718B11",
"K. c #468929",
"L. c #43972B",
"P. c #478B36",
"I. c #588938",
"U. c #429534",
"Y. c #449934",
"T. c #42943C",
"R. c #469A3B",
"E. c #4A9C3C",
"W. c #499A35",
"Q. c #54973B",
"!. c #5C9429",
"~. c #6C932D",
"^. c #4CA237",
"/. c #53A73A",
"(. c #4DA12A",
"). c #78A52E",
"_. c #3D8D42",
"`. c #3C9143",
"'. c #598944",
"]. c #479844",
"[. c #589543",
"{. c #4B8B47",
"}. c #678846",
"|. c #738A57",
" X c #4CA243",
".X c #55AB45",
"XX c #63A944",
"oX c #959A15",
"OX c #8E9412",
"+X c #BC8504",
"@X c #BA8506",
"#X c #A9980A",
"$X c #BC9B07",
"%X c #BAA30D",
"&X c #83A229",
"*X c #899E1E",
"=X c #C38B04",
"-X c #C68C04",
";X c #CD9204",
":X c #C59E08",
">X c #D49603",
",X c #D79803",
"<X c #DB9B02",
"1X c #CA9517",
"2X c #D39915",
"3X c #E19F02",
"4X c #D5A807",
"5X c #CCAA0D",
"6X c #E5A102",
"7X c #EBA601",
"8X c #EDA901",
"9X c #E2AC06",
"0X c #F3AB01",
"qX c #FAAF00",
"wX c #F2AE0E",
"eX c #FEB300",
"rX c #FFB900",
"tX c #F8B205",
"yX c #F8B519",
"uX c #E3A913",
"iX c #CA9A2C",
"pX c #D7A52F",
"aX c #F4BB38",
"sX c #F1B62C",
"dX c #A8AE63",
"fX c #D8AC47",
"gX c #D1AE5C",
"hX c #D2AC56",
"jX c #EABA4D",
"kX c #F1BE48",
"lX c #ECBE55",
"zX c #D6B567",
"xX c #D8B975",
"cX c #CFAD60",
"vX c #E1BD6B",
"bX c #EEC159",
"nX c #F1C257",
"mX c #F4C048",
"MX c #EBC367",
"NX c #E7C474",
"BX c #DDC07D",
"VX c #D8BF86",
"CX c #DAC798",
"ZX c #D4C38D",
"AX c #E4C888",
"SX c #E1CB9A",
"DX c #DFCCA3",
"FX c #DECEAA",
"GX c #DED0AD",
"HX c #E0CEA5",
"JX c #E1D0AB",
"KX c #EBD5B1",
/* pixels */
"> > $.#.= *.,.>.%.>.<.> #.X.X.#.; $.&.#.*.*.#.$.&.#.; =.%.%.:.<.&.&.%.; ; $.#.%.&.%.=.= #.&.; ; &.&.*.%.>.=.%.#.; ; ; = %.%.#.=.",
"> %.<.*.& #.*.%.%.; &.<.>.&.#.#.#.$.$.#.#.#.#.=.>.; ; &.*.*.; &.>.=.&.#.$.#.%.%.; ; %.; %.<.; : $.:.*.; %.&.=.>.$.; &.&.%.; #.#.",
"#.%.1.>.X.X.#.: #.#.%.%.; #.&.#.#.#.; ; %.*.; $.>.*.%.#.X.= #.#.#.%.X.= #.%.X.X.#.#.<.#.; <.>.&.&.%.#.= *.%.#.#.> ; =.%.#.%.%.$.",
"X.o.o.o.X.-.*.= X.X.% X.#.#.& [ o.=.=.#.#.X.X.X.X.*.*.X.X.X.X.& - X.o.X.[ X.o.;.=.%.X.#.#.X.#.%.#.X.X.X.= & X.*.%.#.X.[ >.*.#.; ",
"] +.....+.2.[ $ +.+.] @.;.% ] ..0.0.;.o.o.[ o.$ ] ..2.o.$ ] 0.o.o.2.[ [ ] +.0.2.o.o.$ o...] ..2.+.] ] 0.@.] 2.+.o.{ { 5.0.o.X.& ",
"O.6.4.O.q 8.6.r.6.O.0 O.|.O.r 8.}.{ q q q q 6.5.4.q 4.q.6.r.6.q O 0.q.r 4.}.5.e q q 0 4.6.4.{ q 8.5.8.6.e X O.r.{ e I.I.{ q ..] ",
"F '.[.E 9 F e.7.F     0 e.'.b I.XXQ.w 9 e w 8.'.7.1 1 7.{.7.0   0 O.}.} } [.[.E 0 e w ) {.'.w 9 ) P.7.w 9   0 '.I.C W.XXP.0 0 O.",
"8 8 z.v 1 R v 6 D 2 0 2 w P.Q.K./.C v ) ` R 8 ) ` 1 f T h 6 2 G 0 w ) Q.c.E.P.Z b 7.R f k M.v 1 v v 8 8 2 2 8 E [.Y.L.^.V v 9.9.",
"T d k.a.M C.n.3 6 7 D 7 6 _ M.V g.m a.].B.T v ( j.M k.N.J 4 7 7 7 6 v T.Q k.! B P.T.W d M l.V V T./ 3 7 7 g 6 6 m.j.a.j.N k.].( ",
"z C.m.m.s.s.n.f 4 ~ {.n.f j W a M a.! s.j s m.U.j.M.W _ ~ f K N._.j t Q d M ! f.a.W d ! T.f.M.( ( _ f J _ ]./ f M d j / j.! ! k ",
"j.N.s ~ _.3 3 ^ K h ^ T.z s K h z ! N s y Q M.! s B.T 6 W W a ~ ].j.y s a j Q N l t j B.B.f ` _ 3 g / f h N._.h k s h W a.N d a ",
"z W j J ~ < a ].C.a t ! Q b._ / ^ M a.c.a.N M j t W 7 < j.].! a W ! a.n.W ^ Q M l.a.! W W K K L 3 j R.k.a h b.Q n.^ ~ Q z a.m.s.",
"Q / W J 6 h Q M.U.u.M s j ~ / P P ^ V.g.u.a.Q / h f p L / Z.d.U p p x U U P Q k.c.u.! Q ^ W h f K Q V.V.! j d l ^ W W z f.U.a.f.",
"n.P h B.B.M M l u.a.N s ~ j s.Q M M.E.g.U.l.P H ^ N.F.G.F.H.H.H.F.F.F.F.H.} / R.h.c.V.^ h K N.Q j M n a.a.M y l j B.Q W V.L.l.U.",
"/ f 3 _ C.j j j a.M z j.j.! V.M f.k.g./.U.Q H 5 Y `.9XeXeXeXeXeXeXeXeXeXeXoXA.d.V. Xj.W 3 f N.n.d d j ^ z n a.a.f.V.M j.j.l..Xg.",
"H 7 H W ^ ^ B.~ I P j.E.^.g.g.B f.m n Y.a.d | G.F.*X8XeX8X8X8X8X8X8X7X0XeX%XH.J.oX!.h f A H ~ Q s.n.I K z l. XU.h.h.N j.N B Y.l ",
"3 H L L L I _ p 3 f h B ^.(./.E.f.M W b.H 5 $XrXeXeXeXeX,X>X>X>X>X>X>X6XeXeXeXeXeXG.5 4 H H h h ~ I H 4 f l k./.W./.Y.f.W W ^ s ",
"f h 4 4 L L p 3 h B.! n L.(.W.V l M d f | J.4XeX7X7X7X7X7X7X7X7X7X7X7X7X7X7X7X0XeX#Xw.b H 3 3 h h f 3 ~ B.M n U./.L.B M z h h 3 ",
"h j j P H L P z n.M.f.L.Y.l.h.i.Y.B a p #XrXeXeX<X>X>X,XeXeXeXeXeXeXeX8X>X,X>X7XeXeXrX| Y j P h z P P C.M.a.R.U.h.p.i.E.Q h f 3 ",
"P Q j.].~ H ~ N a.u.c.R.d W ].h.L.f.F.oX:X7X7X7X7X7X7X7XeXeXeXeXeXeXeX0X7X7X7X7X7X7X7X#XOXK.`.K h W ^ a.f.R.T.s B ^.h.Y.a.s.W ~ ",
"h s. XN.H f Q m m ^.c.m.h f T.c.W.d.oXrX6X>X,X,X0XeXeXeXeXeXeXeXeXeXeXeXeXeXeX6X>X,X>X0XeX).b.f d ! Q ! R.V.s.t n W.h.W.h.j.! j.",
"t j.j.j 3 f j.B B R.N s P W W Q ).%X:X6X7X0X0X0XeXeXeXeXeXeX7X6X6X7XeXeXeXeXeX0X8X0X0X7X6X%X#Xk s j.W j. Xl y Q M n B /.v.l l a.",
"N ! Q s c Q k.m l ! Q Q ^ z s U *XeX7X>X0XeXeXeXeXeXeXeXeXqX,X,X,X6XeXeXeXeXeXeXeXeXeX6X>XqXeXZ Q a.j M a.N B s.h s V U.j.z M j.",
"W.a.Q s B R.c.l t l / W k.z } %X4XeX7X,X0XeXeXeX7X6XeXeXeXqX<X,X-X,XeXeXeX7X;X7XeXeXeX,X=XsXaXdXdXM.l t l B a.s.K ^ j.! j.~ W _ ",
"g.g.B m h.x.u.d u l.k.j W 5 | eXeXeX7X>X0XeXeXeX<X,XqXeXeXqX<X>X+X>XeXeXeX3X@X6XeXeXeX>X+XjXMXSXCXj.u l l.s.z j i s W W ^ K 7 A ",
"m f.c.g.x.x.m ! M.R.^ h ^ L F.eX0X3X7X0XqXeXeXeX0X0X6X6X6X3X<X>X=X-X>X>X;X<X0X0XeXsXkXzXxXAXAXHXZXf.i.V.V.z j / M M n.C.^ K 4 D ",
"u.m B L.x.L.L.k.n.f 3 ~ n.a.&XeX8X>X7XeXeXeXeXeXeXeX<X,X,X,X,X>X=X=X=X=X+X<XeXeXeXaXbXAXGXDXDXSXZXW.g.s.a i Q s.j.E.U.a.h 4 4 L ",
"M.M.a.B h..XR.^ f 5 L L } 4X9XeX0X,X7XeXeXeXeXeXeXeXqX0XqX0X-X-X=X;X0X0X0XqXeXsXkXlXlXAXDXxXcXsXyX9X%Xj 4 H P W a.g.p.U.B.3 f W ",
"K j n.l.g.B j i 4 A L S | eXeXeX8X,X7XeXeXeXeXeXeXeXeXeXeXqX-X=X+X>XeXeXeXtXeXaXMXbXbXAXDXzXfXwXqXeX4Xg S L H j ! h.L..Xs.f ^ s.",
"j a ^ j.B m./ 4 4 4 4 5  .eX0X,X7XqXeXeXeXeXeXeXeXeX3X<XeXqX,X>X=X>XeX7X=XpXmXNXSXSXSXNXMXsXtX;X;XeX4X7 5 4 4 h M.l.g.c.l s.].j.",
"z m.m.M.a.s.N.L H ~ M.U  .eX0X>X6XeXeXeXeXeXeXeXeXeX<X,X0X0X,X>X=X;XeX6X+XpXMXAXDXSXCXMXkXyXeX-X=XeX4Xg ~ B.K 6 ^ W z ! s.s.s.W ",
"f.T.M s.k.a g ~ L j U.C.} eX0X,X6XeXeXeXeXeXeXeXeXeX<X,X<X,X=X=X=X=X=X=X+XfXJXNXnXbXMXsXeXeXeX-X-XeX4XT P ].T.f a h f P s.M j h ",
"! ^ f K ~ < a N.n.a s b.S.eX0X,X6XeXeXeXeX0XeXeXeXeX6X<X<X<X-X-X=X=X1X1X1XgXGXNXnXjXjXyXeXeXeX;X-XqX4X( i z m.N Q ~ P ^ ~ ! ! B ",
"l M W h f 3 j T.].Q j H | eX0X,X6XeXeXeX7X,X0XeXeXeXeXeXeXeX<X>X=X1XlXNXDXHXJXAXAXpX+X7XeXeXeX;X-XqX9XY.z s l l s.s.~ / Q V.f.i.",
"f.M z ^ K W ^ ! j.j./ p | eX0X,X6XeXeXeX6X,X8X0X0X0X0X0X0X8X2X2X1XiXMXNXCXZXVXxXvXiX+X7XeXeXeX;X-XqX4Xh.a.Q s d d ! z M M.Y.p.x.",
"! s c n._.h d s ! Q d P !.eX0X>X6XeXeXeX6X>X,X,X,X,X=X+X+X=XhXgXhXzXHXVXcXiX+X+X+X=X+X7XeXeXeX-X=XeX4X( W d N a.B M.M s.M.l./.h.",
"K 4 3 / B.^ s.Q Q M f.V.H.eX0X<X7X0XqXeX7X3X6X6X6X6X2X1X2XiXzXzXzXxXDXBXfXpX;X;X;X>X;X8XeX0X7X>X>XeX4X( / B.R.g.g.g.l a.B a.].a.",
"A L I L K / ^ s 3 s B g.).eXeXeX8X,X7XeXeXeXeXeXeXeXkXnXnXbXSXDXJXHXFXMXeXeXeXeXeXeXeXeXeX;X+X0XeXeX4Xk f ! R.^.L.^.U.a.Q W n.h ",
"A L A 4 H K h < i W l u !.5X4XeX8X;X7XeXeXeXyXyXyXyXMXNXMXNXSXCXxXxXSXlXeXeXeXeXeXeXeXeXeX;X=X0XqX$XOXj ~ z j E././.g.M W K ~ 3 ",
"7 L f h L I L K n.T.a.f.R.C.H.eX6X@X<XeXeXeXaXbXnXnXSXDXFXFXGXCX+X2XbXaXeXeXeXeXeXeXeXeXeX;X@X0X9Xv p m.V.! l.R.L.p.B m.K h f 3 ",
"j M Q m.W K ~ ~ j.g.v.Y.! I ).eX7X;X<X6XwXyXlXNXNXNXSXDXxXzXxXgX=X1XfXsXeXeXeXeXeXeXeX7X6X,X>XqX9XC Q f.u.x.W.V i.L.g.R.j.! W j ",
"P s. XT.P H I ~ B U.L.V.d i &XeXeXeX<X@XpXnXAXFXFXFXFXDX2X>X=X=X=X=X@X>XeXeXeXeXeXeXeX>X@X0XeXrX8XC W ! Y.Y.l.t n  Xh.c.l.a.a.n.",
"a s.V.W 4 H b.! !  Xu.d W j S.#X5XeXuXiXhXNXSXDXAXAXAXAXuX6X-X=X=X-X,X6XeXeXeXeXeXeXeX>X+X8XqX#XOXz.I s. XB z M K n.f.^.x.B Q n.",
"l ! s.a 3 K s.n M j.! z W W s x *XeXsXgXZXFXJXJXMXnXbXlXtXqX=X+X+X;XeXeXeXeXeXeXeXeXeX>X@X0XeXZ K ^ W ^ j.M M ^ K f N ^.g.y j ^ ",
"x.B Q a z Y.c.N d z Q ^ B.M N a.S.#XhXxXZXHXxXgXaXaXaXaXtXqX<X,X,X6XeXeXeXeXeX8X6X6X6X<X,X#XOXz.R.M.d s z Q s.s.j j j.j.s.W ^ n.",
"x.k.z d h.L.i.d s ^ ^ / ^ t y M N U dXKXJXGXiXy.0XeXeXeXeXeXeXeXeXeXeXeXeXeXeX,X@X+X@X7XrX} p M.c.B t l s.a.! M y d ! Q ^ ~ f 6 ",
"u f.V.a.p.x.i.N l.].n.j z l y N l.^ {.|.hXnXuX<X<X<X<X<XeXeXeXeXeXeXeX0X<X<X<X<X3X4X<X#XoXD.a.U.h.B N M.].Q s z d y N j.^ h 5 4 ",
"u.m f.Y.h.v.g.f.m.W f P s.f.V.R.c.! f 5 #XeXeXeX-X@X+X+XqXeXeXeXeXeXeX6X@X+X@X6XrXeXeXF.x x.x.c.h.g.k.m.z i Q n.j.T.R.l.M f A L ",
"l.g.m p.c..X Xd.~ 3 f W Q a.V.k.a.f.g 6 | *X4XeX7X6X6X6X,X,X,X,X,X,X,X<X6X6X6X0XeX#XH.!.a.i.g.Y./.W.( K 4 p U Q s.Z.f.f.a.a 6 ~ ",
"( j.h.i.x.c.M j f 4 A H P Q d.V..XY.y d ^ U :XeXeXeXeXeX=X@X+X+X+X+X@X>XeXeXeXeXeXH.U ^ ! k.g.c.p.n h 6 4 H h j B g.c..XV.s M ! ",
"T 6 a.h.u.u.M 6 4 4 S 5 H n.C.j.E.V n L.V.m  .G.H.H.8XeX7X7X7X7X7X7X7X8XeX5XG.J.*XQ.~ f h m.f.u.B d i 4 D D 7 g h.L.U.].M Q Y.p.",
"T ^ m.f.B C.N.7 7 R R J 7 _ n.M f.f.f.c.a.d h b.d.N 9XeXeXeXeXeXeXeXeXeXeXoXU ^ d.m.W K b.B.s.a.T._ 4 A J ' J p f.! M j.j.k.V.B ",
"W ]./ n.n.j W T L ~ E.P.g 7 T 6 j s.P W s s U.l.N C.| | F.S.S.~.).S. .| | C ^ ! N s s s.C.M N.b.j W K H _ ].B.i K K a z j.W W f ",
"a.s.a I _ 3 < B._ a l U.Q h P j W ^ ~ P h ! l.n t B.H 5 ~ s.h H s.s.K L p K Q ! Q d Q f.a.s / _ < g N.W a ^ N.P K K j Q Q Q W K ",
"N W h 7 J 6 g ].T.d t M Q M.m.Q ! z d.C.^ Q M z s J 6 6 z.^.! 8 v ) z.P.! ! M ! V.s.M j M h 6 J a W [.P.k s ! ) P.( Q ! M j.M.( ",
"^ / W / g T ` B.p.v 7.w v P.P.) l.i.v.g.f.j./ ~ W T J _ ( K.v ) E w ) Q.z.U.j.a.v.a.j.b./ K / g K ) 7.E C ( w b I.K.z.z.B c.f.l.",
"7.g g N.B.T E w r 5.r.e q e 6.4.I.P.C P.P.) T D ' {.L T r e E '.4.q O.O.6.8.Q.C p.W.l.! g g {.( v w 0 e I.I.e e { 6.9.I.K.C L.h.",
"e E E R ) 7.F X q t.... o o ] q { 8.e }.8.b E ' F E ` E o o 6.6.O o o O ] q 8.9.9.I.E w E E E ) ) e X { t.q O o o ..O 4.8.b [.E ",
"q 8.O.9 r r.r.q $ @.% # @ % % $ $ { q +.q X 6.6.0 X O.}...o +.o.# # # % % * ] ] O.O.r O.r.q X q r.6.O o.+.] $ # - # $ ] ] ] +.o ",
"..0.$ . . $ t.;.% # & *.: %.#.#.- * * $ * $ 2...o . o @.0.% - # - : : : &.#.@ @ # * * +.2.O . . ] t.o.% # X.= , :.: = - @ # $ O ",
"X.% # # # - *.% X.= & = = =.&.&.%.#.[ #.- X.X.* $ @ % o.o.% = = = = *.=.; &.%.: %.- & X.- # @ # ] o.% X.X.X.: : :.&.: %.= #.#.- ",
"#.#.= %.*.= - # = *.#.=.=.#.#.&.$.=.#.=.%.%.#.% X.%.#.= # # #.%.*.%.*.*.=.#.&.&.&.&.#.%.#.& %.#.%.- @ %.*.%.>.*.: :.&.%.>.=.&.#.",
"; #.&.<.&.*.%.= X.>.=.#.#.#.:.1.=.=.%.%.&.#.%.#.>.3.#.&.%.= &.>.:.%.%.#.=.<.&.%.#.&.#.X.#.*.3.>.:.>.= X.=.$.%.*.: %.<.*.=.#.#.#.",
"&.$.$.#.; %.3.,.#.%.#.>.%.: :.1.=.= ,.*.#.$.$.: &.X.X.1.<.: &.$.<.:.; &.<.<.; > %.= #.%.%.#.: = > 1.%.#.$.&.&.; : :.1.%.X.=.#.$."
};
