/* XPM */
static char *adfd5f1569a24f37a018bfae1fdf7d7b[] = {
/* columns rows colors chars-per-pixel */
"64 64 150 2 ",
"   c None",
".  c #020101",
"X  c #0A0304",
"o  c #0A0807",
"O  c #0E0B09",
"+  c #120405",
"@  c #190707",
"#  c #110F07",
"$  c #110D0B",
"%  c #1C0A0A",
"&  c #121107",
"*  c #17130F",
"=  c #1C110F",
"-  c #191511",
";  c #1D1814",
":  c #201A15",
">  c #0F0D20",
",  c #1B1727",
"<  c #1E1926",
"1  c #211B29",
"2  c #321D2B",
"3  c #36242D",
"4  c #3A242F",
"5  c #2E2531",
"6  c #21253C",
"7  c #24283F",
"8  c #302632",
"9  c #3E2731",
"0  c #332933",
"q  c #3E2833",
"w  c #461917",
"e  c #441D19",
"r  c #4A1E1B",
"t  c #4E211D",
"y  c #50221E",
"u  c #542B1F",
"i  c #432E2F",
"p  c #532521",
"a  c #572A24",
"s  c #592C25",
"d  c #5E2F2B",
"f  c #5F3426",
"g  c #5E3129",
"h  c #462630",
"j  c #422933",
"k  c #4C2934",
"l  c #553D3B",
"z  c #603527",
"x  c #62342C",
"c  c #252A44",
"v  c #292C44",
"b  c #282D48",
"n  c #C6323A",
"m  c #CC353D",
"M  c #D3363F",
"N  c #D9363F",
"B  c #D53740",
"V  c #D93740",
"C  c #D53F45",
"Z  c #DB3942",
"A  c #E53641",
"S  c #E33A43",
"D  c #EA3D46",
"F  c #F03F48",
"G  c #DA4046",
"H  c #E44047",
"J  c #E44249",
"K  c #EA454B",
"L  c #E34A4E",
"P  c #F0464D",
"I  c #AE8A72",
"U  c #B58773",
"Y  c #B28D75",
"T  c #B69479",
"R  c #BE967C",
"E  c #C2927A",
"W  c #C2997F",
"Q  c #E2CD56",
"!  c #E7D156",
"~  c #EDD459",
"^  c #EFDE5A",
"/  c #F5DE63",
"(  c #FDE365",
")  c #FFEE68",
"_  c #C29B80",
"`  c #C99E82",
"'  c #C5A083",
"]  c #CBA083",
"[  c #CDA288",
"{  c #D3A386",
"}  c #D9A387",
"|  c #D5A78A",
" . c #D9A789",
".. c #D6AC8C",
"X. c #DCAC8E",
"o. c #DFB28B",
"O. c #DFAF90",
"+. c #DFAF90",
"@. c #DDB091",
"#. c #DFB090",
"$. c #DFB191",
"%. c #DFB092",
"&. c #DEB092",
"*. c #DEB090",
"=. c #E8A78C",
"-. c #E5AC8F",
";. c #E0B38C",
":. c #E5AD90",
">. c #E7AE90",
",. c #EFAD90",
"<. c #E8AE90",
"1. c #E1B090",
"2. c #E1B091",
"3. c #E0B191",
"4. c #E0B090",
"5. c #E2B191",
"6. c #E3B191",
"7. c #E0B192",
"8. c #E2B192",
"9. c #E2B392",
"0. c #E2B291",
"q. c #E6B493",
"w. c #E3B595",
"e. c #E6B695",
"r. c #E7B695",
"t. c #E5B796",
"y. c #E7B696",
"u. c #E5B595",
"i. c #EBB595",
"p. c #E8B796",
"a. c #E9B595",
"s. c #E7B891",
"d. c #E9B896",
"f. c #ECBC94",
"g. c #EBBA98",
"h. c #EBBA99",
"j. c #ECBB99",
"k. c #EDBB99",
"l. c #EEBB99",
"z. c #EEBB9A",
"x. c #EEBC9A",
"c. c #EFBE9C",
"v. c #ECBB99",
"b. c #F0BF9C",
"n. c #F1BF9C",
"m. c #F2BF9C",
"M. c #F4C39A",
"N. c #F3C09D",
"B. c #F4C09E",
"V. c #F4C19E",
/* pixels */
"                                                            . . . . . . . . . .                                                 ",
"                                                            . . . . . . . . . .                                                 ",
"                                            . . . . . . . . e t r r r r r r t e . .                                             ",
"                                            . . . . . . . X t y y y y y y y y t X .                                             ",
"                                        . . e t r r r r r r t t t t t t t t t t t e . .                                         ",
"                                        . X t y y y y y y y t t t t t t t t t t y t X .                                         ",
"                                    . . e t t t t t t t t t t t t t t t t t t t t t t e . .                                     ",
"                                    . X t y t t t t t t t t t t t t t t t t t t t t y t X .                                     ",
"                                . . e t t t t t t t t t t t t t t t t t t t t t t t t t t e . .                                 ",
"                                . X t y t t t t t t t t t t t t t t t t t t t t t t t t y t X .                                 ",
"                            . . e t t t t t t t t t t t t t t t t t t t t t t t t t t t t t t e . .                             ",
"                            . . t y t t t t t t t t t t t t t t t t t t t t t t t t t t t t y t . .                             ",
"                            . . r y t t t t t t t t t t r r r r r r r r t t t t t t t t t t y r . .                             ",
"                            . . r y t t t t t t t t t t a s s s s s s a t t t t t t t t t t y r . .                             ",
"                            . . r y t t t t r r r r w p { 1.X.X.X.X.1.{ a w r r r r t t t t y r . .                             ",
"                            . . r y t t t t a s s s p x 1.b.j.j.j.j.b.1.x p s s s a t t t t y r . .                             ",
"                            . . r y t t r a { 1.X.X.X.X.r.p.p.p.p.p.p.r.X.X.X.X.1.{ s r t t y r . .                             ",
"                            . . r y t t r s 1.b.j.j.j.j.p.p.p.p.p.p.p.p.j.j.j.j.b.1.s r t t y r . .                             ",
"                            . . r y t t w p X.j.p.p.p.p.p.p.p.p.p.p.p.p.p.p.p.p.j.X.a w t t y r . .                             ",
"                            . . r y t t p x X.j.p.p.p.p.p.p.p.p.p.p.p.p.p.p.p.p.j.X.x p t t y r . .                             ",
"                            . . r y r a { 1.g.j.j.j.p.p.p.p.p.p.p.p.p.p.p.p.j.j.j.g.1.{ s r y r . .                             ",
"                            . . r y r s 1.c.X.X.X.X.r.p.p.p.p.p.p.p.p.p.p.r.X.X.X.X.c.1.s r y r . .                             ",
"                            . . r y r s 1.1.g p y g 1.b.p.p.p.p.p.p.p.p.b.1.x y p g 1.1.s r y r . .                             ",
"                            . . r y r s 1.1.g y y g { 1.r.p.p.p.p.p.p.r.1.{ g y y g 1.1.s r y r . .                             ",
"                            . . r y r s X.g.X.X.q. .s s X.j.p.p.p.p.j.X.d s  .q.X.X.g.X.s r y r . .                             ",
"                            . . r y r s X.j.j.g.w.| s s X.j.p.p.p.r.j.X.s s | w.g.j.j.X.s r y r . .                             ",
"                            . . w r r s X.j.j.X.5 5 { 1.r.p.p.p.j.j.d.r.1.{ 5 5 X.j.j.X.s r r w . .                             ",
"                            . . u s r s X.j.j.X., , @.b.p.p.p.p.X.X.r.d.b.@., , X.j.j.X.s r s u . .                             ",
"                            . # ! ~ y p X.j.j.X., , X.j.p.p.x.X.- * X.x.j.X., , X.j.j.X.p y ~ ! # .                             ",
"                            . # / ( z d X.j.j.X.5 5 X.j.p.p.x.X.X X  .x.j.X.5 5 X.j.j.X.d f ( / & .                             ",
"                            . $ o.M.X.X.r.p.p.r.X.X.r.p.p.p.b.@.1 < X.j.p.r.X.X.r.p.p.r.X.X.M.;.$ .                             ",
"                            . O ` @.g.j.p.p.p.p.j.j.p.p.p.r.1.[ 1 1 X.j.p.p.j.j.p.p.p.p.j.g.@.` O .                             ",
"                                $ ; X.x.p.p.p.p.p.p.p.p.x.X.8 , > 1 X.j.p.p.p.p.p.p.p.p.x.X.: $                                 ",
"                                . X  .x.p.p.p.p.p.p.p.p.j.X.5 , 1 0 X.j.p.p.p.p.p.p.p.p.x.X.o .                                 ",
"                                . O X.B.p.p.p.p.p.p.p.p.x.x.1.@.@.1.j.x.p.p.p.p.p.p.p.p.B.O.$ .                                 ",
"                                . O ` @.r.p.p.p.p.p.p.r.X.X.X.X.X.X.X.X.r.p.p.p.p.p.p.r.1.] O .                                 ",
"                                    O ; X.N.p.p.p.p.x.X.- o o o o o o -  .x.p.p.p.p.N.1.: O                                     ",
"                                    . X ` 1.r.p.p.p.x.X.- X X X X X X * X.x.p.p.p.r.1.] o .                                     ",
"                                        o - X.B.x.x.x.j.@.X.X.X.X.X.X.@.j.x.x.x.B.@.; o                                         ",
"                                        X $ ` @.X.X.X.X.@.@.@.@.@.@.@.@.X.X.X.X.@.] $ X                                         ",
"                                    . X M M % o o o o o o o o o o o o o o o o o o % M M X .                                     ",
"                                    X % M M @ X X X X X X X X X X X X X X X X X X @ M M % X                                     ",
"                                . X m m @ @ n G  ...Y I I Y ..X.X...Y I I Y .. .G n @ @ m m + .                                 ",
"                                . X S S . . N P ,.p.` _ _ ` d.j.j.d.` _ _ ` p.,.P N . . Z S + .                                 ",
"                            . . . X Z Z X X M D J L -.r.r.1._ R R _ 1.r.r.>.L J D B X X Z Z X . . .                             ",
"                            . . X % Z Z X X M D A H <.g.g.r.R R R R r.g.g.q.J A D B X X Z Z % X . .                             ",
"                            . X n Z D B X X M D S J q.v.g.r.R R R R r.g.v.q.J S D B X X M D Z n X .                             ",
"                            . X Z F D B X X M D S J =.q.r.1.W R R W 1.r.q.=.J S D B X X M D F Z + .                             ",
"                            . X M D D B X X M D S S J L E _ 9.r.r.9._ E L J S S D B X X M D D B + .                             ",
"                            . X M D D B X X M D S S A S E _ q.r.r.q._ E S A S S D B X X M D D B + .                             ",
"                            . X M D D M X X M D S S S J >.w.W R R W w.>.J S S S D B X X M D D M X .                             ",
"                            O = C K K C X X M D S S S J >.r.W R R W r.>.J S S S D B X X C K K C = O                             ",
"                        . O ` X.>.<.i.} o X N D D D D J E ' 9.r.r.9.' E J D D D D V X o } i.<.>.O.` $ .                         ",
"                        . O X.B.g.g.c.X.o X m Z Z Z Z C U T s.f.f.s.T U C Z Z Z Z m X o X.c.g.g.B.@.$ .                         ",
"                        . O  .x.p.p.x.X.O . h k k k k k j l / ) ) / l j k k k k k h . O  .x.p.p.x.X.$ .                         ",
"                        . O  .x.p.p.x.X.O . 3 3 3 3 3 3 2 i Q ^ ^ Q i 2 3 3 3 3 3 3 . O  .x.p.p.x.X.$ .                         ",
"                        . O X.B.x.x.B.O.$ . . . . . . . . X # & & # X . . . . . . . . O X.B.x.x.B.O.$ .                         ",
"                        . O ` @.X.X.@.] O . . . . . . . . . . . . . . . . . . . . . . O ` @.X.X.@.] O .                         ",
"                            O $ $ $ $ O . . 6 c 7 7 c 6 . .         . . 6 c 7 7 c 6 . . O $ $ $ $ O                             ",
"                            . . . . . . . . c b b b b c . .         . . c b b b b c . . . . . . . .                             ",
"                                        . . 7 b c c b c . .         . . 7 b c c b c . .                                         ",
"                                        . . 7 v v v v 7 . .         . . 7 v v v v 7 . .                                         ",
"                                        . . 4 q 9 9 q 4 . .         . . 4 q 9 9 q 4 . .                                         ",
"                                        . . 4 j 9 9 j 4 . .         . . 4 j 9 9 j 4 . .                                         "
};
