/* XPM */
static char *_c5689b2c67946fd9dd597ba6ba6b722[] = {
/* columns rows colors chars-per-pixel */
"64 64 139 2 ",
"   c #0B151F",
".  c #0C1621",
"X  c #0E1922",
"o  c #121D25",
"O  c #141E29",
"+  c #152027",
"@  c #172129",
"#  c #1A252C",
"$  c #1D292E",
"%  c #1C2631",
"&  c #1E2932",
"*  c #202B2F",
"=  c #222D34",
"-  c #242E39",
";  c #263135",
":  c #283437",
">  c #27313B",
",  c #2A343C",
"<  c #2E3A3D",
"1  c #303C3E",
"2  c #2B3441",
"3  c #2F3941",
"4  c #333D42",
"5  c #333D4A",
"6  c #374146",
"7  c #374246",
"8  c #364145",
"9  c #364145",
"0  c #384246",
"q  c #384346",
"w  c #384247",
"e  c #384347",
"r  c #384446",
"t  c #394446",
"y  c #384247",
"u  c #374148",
"i  c #37404F",
"p  c #37414C",
"a  c #384248",
"s  c #384348",
"d  c #394348",
"f  c #394349",
"g  c #3A4349",
"h  c #39434A",
"j  c #39434B",
"k  c #394448",
"l  c #394449",
"z  c #3B4549",
"x  c #3A444A",
"c  c #3B454A",
"v  c #3A444B",
"b  c #3B444B",
"n  c #3B454B",
"m  c #3B464B",
"M  c #3C464B",
"N  c #38414F",
"B  c #39424F",
"V  c #3A434F",
"C  c #3B454C",
"Z  c #3C454C",
"A  c #3C464C",
"S  c #3D474C",
"D  c #3C464D",
"F  c #3D464D",
"G  c #3D474D",
"H  c #3D474E",
"J  c #3D474F",
"K  c #3A444B",
"L  c #3D484C",
"P  c #3D484D",
"I  c #3E484D",
"U  c #3E484E",
"Y  c #3F484E",
"T  c #3E494E",
"R  c #3E484F",
"E  c #3F494F",
"W  c #3E484E",
"Q  c #384250",
"!  c #394250",
"~  c #3A4350",
"^  c #3A4352",
"/  c #3A4450",
"(  c #3B4450",
")  c #3B4451",
"_  c #3C4550",
"`  c #3C4552",
"'  c #3C4553",
"]  c #3D4653",
"[  c #3D4755",
"{  c #3E4754",
"}  c #3E4755",
"|  c #3B4452",
" . c #3F4855",
".. c #3F4956",
"X. c #3F4951",
"o. c #404A4F",
"O. c #404A4F",
"+. c #404A50",
"@. c #414A50",
"#. c #424B53",
"$. c #424C52",
"%. c #414A57",
"&. c #434D54",
"*. c #434C55",
"=. c #434D55",
"-. c #434E54",
";. c #444D56",
":. c #444E56",
">. c #444E57",
",. c #424C55",
"<. c #464F5A",
"1. c #454E59",
"2. c #465057",
"3. c #475158",
"4. c #46505A",
"5. c #47515A",
"6. c #47505B",
"7. c #47505B",
"8. c #48515A",
"9. c #48515B",
"0. c #48525A",
"q. c #48515C",
"w. c #48525C",
"e. c #49525D",
"r. c #49525E",
"t. c #4A535E",
"y. c #4B545D",
"u. c #4B545F",
"i. c #49525D",
"p. c #4C5460",
"a. c #4B5461",
"s. c #4F5963",
"d. c #4F5864",
"f. c #515A66",
"g. c #515A66",
"h. c #515A69",
"j. c #525B69",
"k. c #525C69",
"l. c #525B69",
/* pixels */
"_ t.t.t.t.t.t.4.k.~ = 9 4 4 4 4 4 4 4 4 : = t.t.t.t.t.q.0.t.h.- 1 4 4 4 4 4 4 4 4 1 $ 5 p.4.t.t.t.t.4.f.{ = 8 4 4 4 4 4 4 4 4 < ",
"3 f f f f f f 9 +.N : U f z z z z z z z < # f f f f f f f 9 <.> p C z z z z z z z z $ : z p f f f f 9 A ~ > A f C C z z z z z 4 ",
"4 A z z f f z f *.i > A f f f f f f f z < # C z z z z f z f <.- 9 z f f f f f f f z $ , A f z z z z f U ~ > A f f f f f f f f 4 ",
"4 z f f f f f 9 *.~ : +.M A A A A A A U 1 # f f f f z f f 9 t., f U A A A A A A A U = : M 0 f z f f 0 U _ : o.M A A A A A A A 9 ",
"+ $ $ $ # $ $ # = - # > = = = = = = = = & X # $ $ $ # $ $ # , # = = = = = = = = = = @ o $ $ $ $ $ $ # = - # > = = = = = = = - = ",
"; ; ; = o 5 _ ) ) ) ) ~ ~ _ O $ ; ; ; ; ; ; ; ; ; + % { ) ) ~ ) ~ N { 3 X ; ; ; ; ; ; ; ; ; = X 3 _ ) ) N ) ~ N ..# @ ; ; ; ; ; ",
"z z A 8 # A A A A A A _ z p., 4 A z z z z z z z A ; > +.A A A A A A $.%.& A z z z z z z z A 9 # 9 U A A A A A z y.2 < U z z C z ",
"z z z 4 # 9 f f f f f f 9 ;.> 4 A z z z z z z z z = = A f f f f f f z ) % M z f z z z z z z 9 @ 4 z f f f f f 9 *.> , A z z z z ",
"M A A 8 # z z z z z z C f 0.2 4 U A A A A A A A U ; = U z z z z C z U ..= U A A A A A A A A 0 # 5 A z z z z z f 4.2 < U A A A A ",
"3 3 3 , o = : ; ; , ; ; = 3 @ = < , , , , 4 3 3 4 # @ , ; ; ; , ; = ; , o < , , , , < 4 3 3 , o = : ; ; : ; ; = < # $ < , , , , ",
"o # @ @ @ @ @ @ @ X # 2 , , > , , , , , > X O # @ @ @ @ @ @ + X - 2 , , , , , , , 2 % X # @ @ @ @ @ @ @ X @ 2 , , , , , , , , , ",
"; 9 9 9 0 0 0 9 r & 4 4.*.;.;.;.;.;.;.;.h.% 1 0 9 0 0 0 0 0 1 & *.;.;.;.;.;.;.;.+.s._ $ 0 0 9 0 0 0 9 r = 2 0.*.;.;.;.;.;.;.*.h.",
", z z z z z z f z $ : z 0 0 0 0 0 0 0 9 <.= 4 z z z z z z z 4 # 9 0 0 0 0 0 0 0 9 +.N = z f z z z z f z = ; z 9 0 f 0 0 0 f 5 <.",
", z z z z z z z z * , U z z z z z C z z t.= 4 C z z z z z C 4 # z z z z z z z z f *.~ = z z z z z z z z = : U z z C z z z C f 4.",
"$ 1 4 4 8 4 4 4 4 # = 9 4 4 9 4 4 4 4 4 <.% ; 4 4 4 9 4 4 4 , @ 4 4 4 4 9 4 4 4 4 U i + 1 4 4 9 5 4 4 4 $ & 9 4 4 9 5 4 4 4 1 *.",
"% = = = @ % = = = % % = = & o % = = = = , % % = = & @ = = = = # & = = # @ = = = = - - # = = = @ # = = = % % = = = O # = = = = > ",
"t.q.t.<.& ..t.q.q.t.t.q.q.a.& N a.q.q.t.<.t.t.<.p.4 - p.<.q.t.t.t.<.p.~ % a.q.q.q.q.q.t.q.t.t.% N a.q.q.t.t.q.<.d.= 4 p.<.q.q.q.",
"f f z 4 # f f f f f f f 9 <., 4 z f f f f f f f z = = A f f f f f 0 M _ & z f f f f f f f f 8 @ 4 z f f f f f 9 ;.2 , M f f f f ",
"z z z 4 # f z z z z z z 0 <.> 4 A z z z z z z z z = = A f z z z z z A _ % A z z z z z z z z 9 @ 4 z z z z z z 0 ;., , A z z z z ",
"A A A 9 # f U A A A A A z 4.- 4 U A A A A A A A U ; = o.A A A A A A +.) % U A A A A A A A U z @ 4 U A A A A A z 4.- < +.A A A A ",
": > : =   # : > > > : > : = . # : > > > : : > > : @ . = : > > : : > : @ . = : > > : : : > : =   @ : > > > : > > > . @ : > > : : ",
"4 ) N N ~ N N N %.2 @ = = = = = = = = = $ # ~ N N ~ ~ N N ~ { # = = = = = = = = = = @ , _ N N ~ ~ N N ..3 @ = = = = = = = = = = ",
"5 +.X.X.X.X.X.A u.) : U z z z z z z z z < & +.X.X.X.X.X.X.+.d.> 0 M z z z z z z z r = 3 $.U X.X.X.X.U 0.{ > U z z z z z z z z 1 ",
"4 z f f f f f 9 +.i > A f z z z z z f z < # z f f f f f f 9 <.> 9 z z z z z z z f z * : M f f f f f 9 A N > A f z z z z z z z 4 ",
"4 A z z z z z f ;.~ : U C A z z z z z A < # A z z z z z z z t.> f A A z z z z z z z = < U z z z z z z +.) : U z A z z z z z C 4 ",
"= , , , < : : ; 4 3 & 4 < 4 4 4 4 4 4 4 : o , , , , , : : ; p & < 4 3 4 5 4 4 4 4 4 # # < , , < : : ; < 3 & 4 3 3 4 4 4 4 4 4 < ",
"+ @ @ + X = > - > > > > > - o O # @ @ @ @ + @ @ @ o O > - - , - > > , % X # @ @ @ @ @ + @ @ @ . & > - - > - > > , O O # # @ @ @ ",
"9 9 9 1 # +.<.;.;.;.;.;.*.d.- < 0 9 9 9 9 9 9 9 0 = > 0.*.;.;.;.;.*.t.%.# 0 9 9 9 9 9 9 9 9 4 @ C <.;.;.;.;.;.%.d.> > z 9 9 9 9 ",
"z z z 4 # 9 0 0 0 0 0 f 9 *.> 4 A z z z z z z z A = = z 9 0 0 0 0 0 z ) % A z z z z z z z z 9 @ 4 f 0 0 f f 0 9 *.2 , A z z z z ",
"z z z 4 # f z z z z z z f <.> 4 A z z z z z z z z = = U f z z z z z A _ % A z z z z z z z z 9 @ 4 C z z C z z f ;., , A z z z z ",
"z z A 4 # 4 9 9 9 9 9 9 4 +.- 3 A z z z z z z z A ; = z 9 9 9 9 9 4 0 N # M z z z z z M z z 9 @ < 9 9 9 9 9 8 4 +.- , A z z z z ",
"# # # # X O @ @ @ O @ & # & @ % = = = = & # # # # + X @ @ @ @ O # % & % O = = = = = % # # # # X o @ @ @ + @ & # = @ # = = = = = ",
"# , , , < , , , < @ , <.%.%.;.%.%.%.%.%.q.O = , , , < , , , ; O { ;.%.%.;.%.%.%...a.5 o , , , < , , , , # - <.%.%.;.%.%.%.%.%.t.",
": z z z z z z z z = < U z z z z z z z z p.= 4 C z z z z z z 4 $ z z z z z z z z 0 ;.) = z z z z z z z z ; : U z z z z z z z f p.",
", z f z z z z f z $ , A f z z z z z z f q.= 4 z z z z z z z 4 # f z z z z z z z f $.N = z f z z z z f z = > A f z z z z z z 0 4.",
": z z z z z z z M = , U z z z z z z z z p.= 1 z z z z z z M 4 # z z z z z z z z f ;._ = z z z z z z z M = : U z z z z z z z f t.",
"o = = = = = = = = o o = = = = = = = = = 4 o @ = = = = = = = $ . $ = = = = = = = * , ,   = = = = = = = = o o = = = = = = = = * 3 ",
"N N N ~ # 3 ~ N N N N N N i O 2 ) N N N N N N N ) , # ~ N N N N N i _ > O ~ N N N N N N N N ) # 2 ) i N N N N N ) O - ) i N N N ",
"$.$.*.U & X.*.$.*.*.*.*.+.s., f ;.$.$.*.*.$.*.+.;., > 2.+.$.*.*.*.+.4.%.= ;.+.$.$.*.$.$.$.*.U # f ;.$.*.*.*.*.+.p.2 4 ;.$.$.*.*.",
"f f f 4 # 9 f f f f f f 9 *.> < z f f f f f f f z = = z 0 f f f f f z ) % z f f f f f f f f 4 @ 4 z f f f f f 9 *.> : M f f f f ",
"z z A 8 # f z z z z z C f 4., 4 A z z z z z z z A ; - U z z z z z z A { & A z z z z z z z z 9 # 5 A z z z z z f 4.2 < A z z z z ",
"5 5 5 < . > 9 5 5 9 p 9 9 p O : p 9 9 9 9 9 5 5 9 # o 4 5 5 5 9 9 5 f , O 5 9 9 9 9 p 5 5 5 1 X = 9 5 5 5 p 9 9 N @ = f 9 9 9 9 ",
"- , > - & - , > , & @ # # @ o @ # # # # # # , > > - & > > > > # # # # O o # # # # # @ = , > > & = , > , = @ # # @ o + # # # # # ",
"N <.;.;.<.<.;.%.f.~ = 9 4 9 9 8 4 4 4 4 : & <.<.;.<.<.<.*.<.h.- 4 9 4 9 9 4 4 4 4 4 $ 4 4.*.;.<.<.;.*.d.{ = 0 4 9 9 9 4 4 4 4 < ",
"< f 0 0 0 0 0 9 +.i : U f z z z z z z z < # f 0 0 0 0 0 0 9 <.> 9 C z z z z z z z z & : z 0 0 0 0 0 9 A ~ > U f z z z z z z C 4 ",
"4 A z z z z z f *.i > A f f z z z z z z < # A z z z z z z f <.- 9 z f f z z z z f z * , A f z z z z f X.~ > A f f z z z z z f 4 ",
"< r 0 0 0 0 9 9 $.~ : U z M A A A A A A 1 # 0 0 0 0 0 9 9 8 4., f A M A A A A A A M = : z 9 0 0 9 9 9 A ) : U z M A A A A A A 8 ",
"o @ @ @ @ @ @ @ # % @ & % # # # # # # # @ . + @ @ @ @ @ @ @ = @ # % % # # # # # # # o X @ @ @ @ @ @ @ # % @ & % # # # # # # # @ ",
": ; > = o N { _ _ _ _ _ _ %.# $ : ; ; ; ; , ; ; , @ & %._ _ _ _ _ ) %.5 o : ; ; ; ; : : ; ; ; o 5 .._ _ _ _ _ ) ;.% # : ; ; ; ; ",
"z z A 8 # z A A A A A A z t., 4 A z C C z z z z A ; > U z A A A A z +.%.& A z z z z z z z A 9 # 5 A A A A A A z 0.2 < U z z z z ",
"z z z 4 # p z z z z z z 0 ;.> 4 A z z z z z z z z = = A f z z z z z A ) % M z z z z z z z z 9 @ 4 M z z z z z 0 ;.> , A z z z z ",
"A A U 9 # z M z z z z C f 4., 4 U A A A A A A A U ; = U z z z z z z U ..& U A A A A A A A A 0 # 5 A z z z z z f 4.2 < o.A A A A ",
"< < < : o = ; ; ; ; = = = , O = , , , , , < < < < # O ; ; ; ; ; = = ; - o , , , , , , < < < , o & ; ; ; ; ; = = < @ # < , , , , ",
"o $ $ $ $ # $ $ $ X & 5 5 5 5 5 5 5 5 5 5 X @ $ $ $ $ $ $ $ # X 3 5 5 5 5 5 5 5 5 i - X $ $ $ $ $ $ $ $ o % 5 5 5 5 5 5 5 5 5 5 ",
"; r z z z z z z z $ 4 4.*.;.;.*.*.*.*.;.h.& 1 z z z z z z z 1 & *.*.*.*.;.*.*.*.+.s.{ $ r z z z z z z z = < 4.*.*.;.*.*.*.*.*.h.",
", z z z z z z f z $ : z f f f f f f f 9 <.= 4 z z z z z z z 4 # 9 f f f f f f f 9 +.N = z f z z z z f z = > z 9 f f f f f f 9 <.",
", z f z z z z z z = < U z z f z z z z z t.= 4 z z z z z z z 4 # z z z z z z z z f ;.~ = z z z z z z z M = : U z z z z z z C f t.",
"# < < < 4 1 < < 1 @ & 4 < < 4 1 < < < < ;.# = 1 < 1 4 < < 1 : o < 1 < 4 4 < < < < z 5 O < < < 4 1 < < 1 # # 4 < < 4 1 < < < < +.",
"& - - - @ & - - - & & - - = o & - - - = , & = - - & @ - - - - % = - - # o - - - = > > % - - - @ % > - - & & - - - o # - - - = , ",
"4.<.4.*.& X.q.<.<.4.4.<.<.p.= N t.<.<.<.<.<.<.<.t.3 - t.<.<.<.4.<.<.p.{ % t.<.<.<.<.<.4.<.<.<.% N t.<.<.4.4.<.<.f.- 4 t.<.<.<.<.",
"f f f 1 # 9 f f f f f f 9 ;., 1 z f f f f f f f z = = z 9 f f f f p z _ & z f f f f f f f f 4 @ 4 f f f f f f 9 *.2 , z f f f f ",
"z z z 4 # f z z z z z z 9 <., 4 A z z z z z z z z = = A f z z z z z A _ % A z z z z z z z z 9 @ 4 z z z z z z 0 ;.2 , A z z z z ",
"A A A 9 @ 9 U A A A A A z ;.- 4 U A A A A A A A U ; = U M A A A A M o.N # U A A A A A A A A 0 @ 4 U A A A A A z <.- < U A A A A ",
"= = = &   @ = = = = = = = & . @ = = = = = = = = = O . = = = = = = = = O . & = = = = = = = = = . O = = = = = = = & . @ = = = = = "
};
