/* XPM */
static char *_6fc592f513c465e92e3552ef04362d8WiEAyF8o51vHCBke[] = {
/* columns rows colors chars-per-pixel */
"64 64 167 2 ",
"   c #360116",
".  c #3D0516",
"X  c #54070F",
"o  c #5A070D",
"O  c #56080F",
"+  c #5C0B0E",
"@  c #420615",
"#  c #490713",
"$  c #450A15",
"%  c #4B0C15",
"&  c #520710",
"*  c #520C13",
"=  c #5A0C10",
"-  c #4E1115",
";  c #531215",
":  c #5C1513",
">  c #561914",
",  c #5C1E15",
"<  c #630C0D",
"1  c #6A0F0D",
"2  c #66110E",
"3  c #6B130E",
"4  c #6F180F",
"5  c #71170E",
"6  c #741B0E",
"7  c #7B1E0D",
"8  c #611612",
"9  c #641B13",
"0  c #6B1D13",
"q  c #761E10",
"w  c #791F11",
"e  c #5F2015",
"r  c #7D220E",
"t  c #7F2B0E",
"y  c #642414",
"u  c #6B2514",
"i  c #6D2A14",
"p  c #732212",
"a  c #7B2612",
"s  c #732D13",
"d  c #7E2A11",
"f  c #773114",
"g  c #7A3313",
"h  c #7F3913",
"j  c #82250F",
"k  c #85290F",
"l  c #8B2D0F",
"z  c #8A300F",
"x  c #92320F",
"c  c #832610",
"v  c #862A10",
"b  c #872A10",
"n  c #842A12",
"m  c #852A10",
"M  c #852B11",
"N  c #882A10",
"B  c #882C10",
"V  c #892C10",
"C  c #8A2D10",
"Z  c #8B2D10",
"A  c #8A2C11",
"S  c #8B2D11",
"D  c #8B2E10",
"F  c #8B2F10",
"G  c #8B2E11",
"H  c #8B2F11",
"J  c #8C2E10",
"K  c #8D2E10",
"L  c #8C2F10",
"P  c #8D2F10",
"I  c #8C2E11",
"U  c #8C2F11",
"Y  c #8D2F11",
"T  c #8B2E11",
"R  c #823513",
"E  c #8D3010",
"W  c #8C3011",
"Q  c #8D3011",
"!  c #8D3111",
"~  c #8E3010",
"^  c #8F3010",
"/  c #8E3110",
"(  c #8F3110",
")  c #8E3011",
"_  c #8E3111",
"`  c #8F3111",
"'  c #8D3310",
"]  c #8D3211",
"[  c #8E3211",
"{  c #8F3211",
"}  c #8F3611",
"|  c #8F3711",
" . c #8D3011",
".. c #853A13",
"X. c #853B13",
"o. c #873D12",
"O. c #823A14",
"+. c #853C13",
"@. c #893912",
"#. c #893A13",
"$. c #8D3912",
"%. c #8A3F12",
"&. c #8B3F12",
"*. c #8E3D12",
"=. c #8A3C12",
"-. c #913111",
";. c #903211",
":. c #913211",
">. c #903510",
",. c #903411",
"<. c #913611",
"1. c #913711",
"2. c #933711",
"3. c #903612",
"4. c #903712",
"5. c #913713",
"6. c #923612",
"7. c #923712",
"8. c #933712",
"9. c #913310",
"0. c #913811",
"q. c #923811",
"w. c #933811",
"e. c #933911",
"r. c #933A10",
"t. c #923812",
"y. c #933812",
"u. c #933912",
"i. c #913A12",
"p. c #923A12",
"a. c #903C12",
"s. c #943C11",
"d. c #943D11",
"f. c #953E11",
"g. c #973F12",
"h. c #933A11",
"j. c #983F11",
"k. c #98400F",
"l. c #8B4012",
"z. c #8C4011",
"x. c #8D4011",
"c. c #8C4111",
"v. c #8F4211",
"b. c #8C4012",
"n. c #8D4012",
"m. c #8C4112",
"M. c #8D4112",
"N. c #8C4013",
"B. c #8E4112",
"V. c #8F4212",
"C. c #8C4113",
"Z. c #904212",
"A. c #904312",
"S. c #954012",
"D. c #954112",
"F. c #924412",
"G. c #934412",
"H. c #964711",
"J. c #964311",
"K. c #984612",
"L. c #984712",
"P. c #994211",
"I. c #994912",
"U. c #9A4912",
"Y. c #9B4A11",
"T. c #9F5011",
"R. c #A04D11",
/* pixels */
"Q Q Q Q Q Q Q Q Q Q Q Q k C C 6 X ; -.Q -.Q Q Q N j n Q Q Q Q Q Q Q n n Q U Q n $ . d x k k Q Q Q Q Q Q Q Q U U Q C k n % *.8.U ",
"Q Q Q Q Q Q Q Q U c j j 2 6 6 < # % a c a j c k 4 o 3 k n Q Q Q Q -.4 4 U Q U p $ . p x 4 5 l n Q Q Q Q Q Q Q Q U 6 2 p $ p U Q ",
"n n n n n n n n a < < < # * < * . . $ + $ O < < # . # < 2 n n n n n : # 5 n p @ . . O r ; : 7 3 n n n n n n n n 6 O @ @ . @ a n ",
"% % % % % % % % $ @ @ $ @ $ # @ $ @ . $ @ $ $ $ $ @ @ $ $ $ $ $ % % $ @ $ % % @ @ @ $ % $ $ $ $ % % % $ $ $ % % $ $ @ @ @ @ % % ",
"b.b.b.b.b.&.b.f . . @ h b.Z., 9 H.s % &.b.b.b.b.b.b.b.b.h @ . . g b.b.b.b.&.b.b.b.b.b.b.b.b.b.b.l.b...$ . . i G.l.b.b.b.b.b.b.b.",
"y.y.y.y.y.y.8.y.g $ h y.y.y.=.=.8.$...y.y.y.y.y.y.y.y.y.8.p % f y.8.y.8.J.L.8.y.y.I.f.8.y.8.J.L.y.y.8.a $ i d.8.y.8.f.I.y.y.y.y.",
"U U U U U U U C 6 $ G.8.C C 8.8.l Q y.U U U U U U U U C Q n - &.8.C U U Q } U U U 8.Q U U C Q } C U U Q % O.f.C Q U Q } U U U U ",
"Q Q Q Q Q Q Q j o $ Z.8.U Q U U Q U U Q Q Q Q Q Q Q Q Q Q n - o.y.U Q Q U U Q Q U U U Q Q Q U U Q Q Q C % h f.C Q Q U U U Q Q Q ",
"Q Q Q Q Q Q Q j + $ Z.8.U Q Q Q Q Q Q Q Q Q Q Q Q Q Q Q Q n - o.y.U Q Q Q Q Q Q Q Q Q Q Q Q Q Q Q Q Q C % h f.C Q Q Q Q Q Q Q Q ",
"Q Q Q Q Q U Q k < $ Z.8.U Q Q Q Q Q Q Q Q Q Q U Q Q U Q Q n - o.y.U Q Q Q Q Q Q Q U U Q Q U Q Q Q Q Q C % g s.U Q Q Q Q Q Q Q Q ",
"Q Q Q Q Q Q l 7 & $ *.8.U Q Q Q Q Q Q Q Q Q Q Q k n Q Q -.n % ..8.C Q Q Q Q Q Q Q U U j l Q Q Q Q Q Q Q % p -.U Q Q Q Q Q Q Q Q ",
"Q Q Q N C U 7 + . @ a U Q Q Q C j N Q Q Q Q k n 3 5 k j k p % p U Q Q Q Q U k U Q Q Q 3 6 U Q C n N U d $ 0 C Q Q Q Q Q U n U Q ",
"n n M 4 6 p < O . . $ a M n M q < 4 M n n n 4 # . * < < + @ . $ p M n M M a 3 n n n n ; & 6 M a < 3 a % . . 0 C n M M M n 2 r n ",
"% % % $ $ $ $ $ @ @ @ $ $ $ $ $ $ $ % $ % % $ @ @ $ $ $ $ @ @ @ $ % $ $ $ $ $ % % % % $ $ $ % $ $ $ % @ @ @ $ % $ $ $ $ $ $ $ % ",
"l.l.l.l.l.l.b.b.b.b.b.l.; . . y b.b.h $ O.b.l.b.b.l.b.b.b.b.b.b.l.b., . . > b.l.l.l.l.b.l.l.l.l.b.l.l.b.b.b.l.b.u . . . @ ..b.l.",
"y.y.y.H.J.8.J.L.y.y.y.8.d * y =.y.y.} a $.I.Y.f.J.H.y.y.y.y.y.y.y.y.M ; ; =.y.y.y.y.y.y.y.y.J.H.d.I.I.y.y.y.y.y.W 9 . $ h y.8.y.",
"U U C } Q C Q 8.C U U U x : s P.k C U Q U 8.y.Q } Q C C C C C C C C x 9 , Y.U C C C C C C C Q } Q y.y.U C C C C -.p % g y.U C C ",
"Q Q Q U U Q U U Q Q Q Q Q ; i J.C Q Q Q Q U U Q Q U Q Q Q Q Q Q Q U x 8 e J.7 C Q Q Q Q Q Q U U Q U U Q Q Q Q Q -.0 > I.Q U Q Q ",
"Q Q Q Q Q Q Q Q Q Q Q Q -.: i J.C Q Q Q Q Q Q Q Q Q Q Q Q Q Q Q Q U x 9 - s 7 Q U U Q Q Q Q Q Q Q Q Q Q Q Q Q U -.p % s C Q Q Q ",
"Q Q Q Q Q Q Q Q Q Q Q U a % i J.C Q Q Q Q Q Q Q Q Q Q Q Q Q U Q Q U x 9 . 8 U r C U Q Q Q Q Q Q Q Q Q Q Q r k Q -.p . $ M Q Q Q ",
"Q Q Q Q Q Q Q Q Q U Q U : . s f.C Q Q Q Q Q Q Q Q Q Q Q C j Q Q Q C x 9 @ 3 r 5 j U Q Q Q Q Q Q Q Q U U Q r 7 j l p @ : C -.Q Q ",
"Q Q Q Q Q Q Q Q Q Q U n 3 # 9 C Q Q Q Q Q Q Q Q Q Q Q Q N 5 a d C Q C : . # 3 n 2 r n C Q C n n n n U Q Q J.k < 5 9 % a d d C Q ",
"M M M M M M M M M M n 3 # . . 9 C M M M M M M M M M M M M a % @ a W : . . . * a $ + # p W 6 & # < 3 n M M M *.y . @ @ $ @ $ a C ",
"$ $ $ $ $ $ $ $ $ $ $ $ @ @ . @ $ $ $ $ $ $ $ $ $ $ $ $ $ $ @ @ $ $ @ . @ . @ $ @ @ @ $ $ $ @ @ @ $ $ $ $ $ % $ . @ @ @ @ @ $ $ ",
"o.o.o.o.o.o.o.o.o.&.o.&.&.l.p + + + O . . . & + + + + + + + + + + + o p V.s . . @ h b.o.o.&.&.&.&.&.o.o.o.&.&.&.&.&.&.&.&.&.&.o.",
"y.I.Y.f.y.y.y.y.y.y.I.f.y.y.l j j j j 0 % s k j j j j j j j j j j j j l s.Q 0 % g y.y.y.y.J.Y.L.8.f.I.s.8.y.8.J.L.y.y.y.y.y.y.y.",
"U 8.y.Q U U U U U U y.Q U U Q Q Q Q -.M - &.s.U Q Q Q -.Q Q Q Q Q Q Q Q C -.a - Z.8.C U U Q y.} C Q 8.Q U U C } } U U U U U U U ",
"Q U Q Q Q Q Q Q Q Q U Q Q Q Q Q Q Q Q n - o.y.U Q Q Q Q U Q Q Q Q Q Q Q Q -.a - b.} U Q Q Q U U Q Q U Q Q Q Q U U Q Q Q Q Q Q Q ",
"Q Q Q Q Q Q Q Q Q Q Q Q Q Q Q Q Q U C 9 % o.y.U Q Q U Q Q U U Q Q Q Q Q Q -.a - Z.8.U Q Q Q Q Q U U Q Q Q Q Q Q Q Q Q Q Q Q Q Q ",
"Q Q Q Q Q Q Q Q Q Q Q Q Q Q Q Q Q Q n # $ o.y.U Q Q Q l j U Q Q Q Q Q Q Q -.d % s W Q Q Q Q Q Q Q Q Q Q Q Q Q Q Q Q Q Q Q Q Q Q ",
"Q Q Q Q Q Q Q Q Q Q Q Q Q Q Q n k Q C 4 % ..8.C Q N j r 6 U Q Q U Q Q U Q U p @ ; n Q Q Q Q Q Q Q Q Q Q Q Q Q U C Q Q Q U U Q Q ",
"Q Q Q Q Q Q Q Q Q Q Q Q Q Q -.r 6 N n a % p Q N N q < 4 n U Q Q U n C l k r O $ a C Q Q Q Q Q Q Q Q Q Q Q C n M Q Q Q Q Q U k n ",
"C C C C C C C C C C C C C C M C w < < $ . @ a 5 < * # < 3 M C C C ; 0 r < + . . $ a C C C C C C C C C C C 5 # 9 U M C C C M 3 < ",
"$ $ $ $ $ $ $ $ $ $ $ $ $ $ $ % $ # @ . @ . $ $ @ @ @ @ @ $ $ $ % @ $ $ # @ @ . . $ $ $ % % % % $ % % $ $ $ . @ % $ $ $ $ $ $ @ ",
"......O.&.y > o.o.h @ . . i o.O...o...o.o.o...O.l.y . . % O.o.....o...O.o.o...o.h $ . . y &.O.............X.o...O.o.s . . . g o.",
"s.s.s.f.s y ..s.s.y.p % u $.s.s.s.f.I.s.s.s.s.s.s.W : - R y.s.s.s.y.L.L.y.J.I.s.y.a $ y $.y.J.Y.Y.I.f.I.f.s.s.s.s.f.} 0 $ f y.y.",
"U U U U d h y.C U U C * O.f.N U U Q y.U U U U U C 9.0 > Y.U U U U U } } l Q y.C U Q % O.f.N Q y.y.8.U $.Q U U U U C -.n % G.8.C ",
"Q Q Q U y.y.C U Q Q M % h s.C Q Q U U Q Q Q Q Q C -.0 > H.Q U Q Q Q U U Q U U U Q C % > d Q U C U U U U U Q Q Q Q Q -.a % b.8.U ",
"Q Q Q Q U U Q Q Q Q C % h f.C Q Q Q Q Q Q Q Q Q C -.0 > L.Q U Q Q Q Q Q Q Q Q Q Q C % > d Q Q Q Q Q Q Q Q Q Q Q Q Q -.a % b.8.U ",
"Q Q Q Q Q Q Q Q Q Q C % g s.C U Q Q Q Q Q Q Q Q C -.0 ; J.U U Q Q Q Q Q Q Q Q Q Q U % i } -.Q Q Q Q Q Q Q Q Q Q Q Q Q a % b.8.U ",
"Q Q Q Q Q Q Q Q Q Q C % p -.U Q n a Q Q Q Q Q Q C -.0 % Q Q Q Q Q Q Q Q Q Q Q Q Q U % . 9 a d Q Q Q Q Q Q Q Q Q Q Q Q d % *.8.U ",
"Q Q Q Q Q Q Q Q Q Q C % p -.U -.p : n C Q Q Q Q C -.0 ; Q M U Q Q Q Q Q C C Q Q Q U % @ % % 9 Q Q Q Q Q Q U Q Q Q U Q a % n Q Q ",
"Q Q Q Q Q Q Q Q Q Q n % p Q U U y.h % 3 n C C Q U x 0 ; d % n U C C U -.r 4 U l U C % & t G.$.U Q U Q Q Q U U C C Q c < # < k U ",
"U U U U U U U U Q C % @ $ p -.C U y.O.$ $ < j Q -.0 @ @ $ @ < 3 < c Q -.0 # 5 l M ; . @ + j Q C U U U U U Q 7 * 9 j < @ . # n 6 ",
"* * % ; ; * ; ; ; % . . . % ; ; ; ; ; . . # % * * $ . . . . # # # % ; * $ . # * % . . . @ % ; ; ; ; ; ; ; ; % @ $ * # . . . % $ ",
"f f g - , ,     @ g g g g ; . .   % f g g g f f f g g g g g s $ . . , g f g f f f g g 8 X O # . . . & X X X X O O & X + f g f f ",
"f.f.k.d M =.s s s u y.f.j.d % > s g f.f.f.f.f.f.L.T.L.f.f.j.f.p $ e =.j.f.f.P.Y.P.f.f.k 7 j 8 . % s r r r r r r r r r j f.f.j.f.",
"C C C Q U 8.P.P.*.y M C C -.: u R.y.C C C C C C } d.} C C C U Q % h f.N C C Q y.C C C Q Q -.d ; ; H.} Q Q Q Q Q Q Q Q Q C C C C ",
"Q Q Q U U U C C Q J.Q U Q -.: y P.C Q Q Q Q U U U U U U U Q U C % g f.U Q Q U U U Q Q Q Q C -.p ; H.Q U Q Q Q Q Q Q Q Q Q Q Q Q ",
"Q Q Q Q Q Q Q Q U U Q Q Q -.: y L.U Q Q Q Q Q Q Q Q Q U U Q U C % g f.C Q Q Q Q Q Q Q Q Q U -.p - g W U Q Q Q Q Q Q Q Q Q Q Q Q ",
"Q Q Q Q Q Q Q Q Q Q Q Q Q -.: y J.C Q Q Q Q Q Q Q Q Q Q Q Q Q U % f s.C Q Q Q Q Q Q Q Q Q Q -.p . * M Q Q Q Q Q Q Q Q Q Q Q Q Q ",
"Q Q Q Q Q Q Q Q Q Q Q Q Q l : : Q U Q Q Q Q Q Q Q Q Q l C U C C % p -.U Q Q Q Q Q Q Q Q Q C C u # 4 C Q Q Q Q Q Q Q Q Q Q Q Q Q ",
"Q Q Q Q Q Q Q Q Q Q Q U Q 6 # # 6 Q C Q Q Q Q Q Q Q Q r 4 k 4 k - 0 -.U Q Q Q Q Q Q Q C Q 7 = . % M U U Q Q Q Q Q Q Q Q Q Q Q U ",
"Q U U U U U U U U U C 5 3 & @ @ & 3 5 C U U U U U Q j = % 2 $ % @ $ p -.U U U U U U Q 6 3 = @ . @ ; n Q U U U U U Q Q U U U Q 6 ",
"; ; ; ; ; ; ; ; ; ; ; # # . . . @ # # ; ; ; ; ; ; ; * # . $ . . . . $ ; ; ; ; ; ; ; ; $ # @ . . . . ; ; ; ; ; ; ; ; ; ; ; ; ; $ ",
"s $ y ;     - g g f f g g g h 0 X & & & & & & X # . . @ O & O O s h f s f f f f f f f g g g g g h i . . . y g f f s s f f f f g ",
"f.p @.d % ; R P.P.P.P.P.P.J.P.z 7 7 7 7 7 7 r 3 + # ; d 7 7 7 7 y.P.Y.L.f.P.P.P.P.P.P.P.f.I.I.f.P.y.0 $ y $.P.f.L.Y.Y.f.f.P.P.P.",
"U Q U -.8 y L.N C C C C C C C Q Q Q Q Q Q Q r r k : - g Q Q Q Q U C y.} C C C C C C C C C } y.U C U C % l.y.N C } d.y.C C C C C ",
"Q Q Q -.: y H.U Q Q Q Q Q Q Q Q Q Q Q Q Q C r @.Y.u @ u U Q Q Q U U U U Q Q Q Q Q Q Q Q Q U n j Q -.M % o.y.C U U U U Q U Q Q Q ",
"Q Q Q -.: y H.U Q Q Q Q Q Q Q Q Q Q Q Q U U f.} -.8 y Y.C Q Q Q Q U Q Q Q Q Q Q Q Q Q Q Q Q c 6 r a M % o.y.C Q Q Q Q Q Q Q Q Q ",
"Q Q Q -.: y H.U Q Q Q Q Q Q Q Q Q Q Q U U U U C -.9 > *.U Q Q Q Q Q Q Q Q Q Q Q Q Q Q Q Q C y.$.2 * p % &.y.C Q Q Q Q Q Q Q Q Q ",
"Q U C C : y J.C Q Q Q Q Q Q Q U U C M Q Q Q Q U Q 9 . : Q Q Q Q Q Q Q Q Q Q Q Q Q Q Q Q Q U U y.@.< $ @ ..8.C Q Q C C C Q Q Q Q ",
"U Q 5 * . 9 Q U U U U Q Q Q U Q c + ; C Q U U l 7 * . ; Q Q U U U Q Q Q Q Q Q Q Q Q Q Q U U U j 3 < + @ < j Q U Q j < 4 l U U Q ",
"3 * $ @ . @ 9 Q n 4 C l l l l l } d O % ; d 6 3 * @ . ; U l C 5 c U C l l l l l l l l U q 3 8 % # $ $ @ @ a r 1 3 + # < 3 * n Q "
};
